<?xml version="1.0" encoding="UTF-8"?>
<svg version="1.1" xmlns="http://www.w3.org/2000/svg" width="410" height="165">
<path d="M0 0 C2.80006872 0.98998692 2.80006872 0.98998692 5.13671875 0.109375 C6.10544922 -0.46876953 6.10544922 -0.46876953 7.09375 -1.05859375 C13.56252996 -4.79696166 19.51864018 -4.97812343 26.90625 -4.24609375 C34.69838712 -1.87872784 39.94220662 2.62131643 43.96875 9.59375 C46.58505215 15.30523103 45.83305705 20.67941183 44.90625 26.75390625 C45.97875 26.17640625 47.05125 25.59890625 48.15625 25.00390625 C65.82567109 16.27750214 88.33372609 13.63461285 107.359375 19.75 C121.83284803 25.45503461 131.42930677 32.85571923 138.0390625 47.21484375 C143.01726673 61.79066694 139.87195963 78.61890093 133.7421875 92.25390625 C130.75713234 97.9445646 127.04239591 102.85506676 122.90625 107.75390625 C122.36484375 108.40875 121.8234375 109.06359375 121.265625 109.73828125 C108.30503646 124.00802015 88.50052697 130.90753806 69.68041992 131.86743164 C51.68368338 132.14755936 35.47997762 127.8561457 21.90625 115.75390625 C21.53113281 116.285 21.15601563 116.81609375 20.76953125 117.36328125 C15.89350836 124.09391234 12.19429643 127.76849248 3.90625 129.75390625 C1.23106258 129.96197638 -1.29997999 130.08666074 -3.96875 130.06640625 C-4.66911377 130.06584229 -5.36947754 130.06527832 -6.09106445 130.06469727 C-10.88683728 129.97972295 -14.84791918 129.30647638 -19.19921875 127.3125 C-22.52555392 126.33174551 -25.43749473 127.56258107 -28.6796875 128.5078125 C-43.11264054 132.69215603 -58.35699435 131.94090531 -71.84375 125.06640625 C-78.13886286 121.37966372 -84.02266446 116.86053457 -88.09375 110.75390625 C-88.32449219 111.33398438 -88.55523437 111.9140625 -88.79296875 112.51171875 C-91.46818843 118.9195572 -93.96730848 123.8650145 -100.09375 127.56640625 C-104.36866188 129.25855887 -108.28258946 129.87741145 -112.86474609 129.89916992 C-113.78274994 129.90554977 -114.70075378 129.91192963 -115.64657593 129.91850281 C-116.62687775 129.91961563 -117.60717957 129.92072845 -118.6171875 129.921875 C-119.63672516 129.9252034 -120.65626282 129.9285318 -121.70669556 129.93196106 C-123.86012319 129.93701586 -126.01355863 129.93936983 -128.16699219 129.93920898 C-131.45000198 129.94139377 -134.73267468 129.95956038 -138.015625 129.97851562 C-140.11197802 129.98145023 -142.20833263 129.98343458 -144.3046875 129.984375 C-145.28094086 129.99156052 -146.25719421 129.99874603 -147.26303101 130.00614929 C-152.64364714 129.9882395 -156.97990929 129.3892277 -162.09375 127.75390625 C-165.19990338 127.99369335 -165.19990338 127.99369335 -168.09375 128.75390625 C-171.41598205 129.49678558 -174.50618727 129.88962732 -177.90893555 129.9309082 C-179.30144783 129.95016106 -179.30144783 129.95016106 -180.72209167 129.96980286 C-181.71485611 129.97718979 -182.70762054 129.98457672 -183.73046875 129.9921875 C-185.28239677 130.00429512 -185.28239677 130.00429512 -186.86567688 130.01664734 C-189.05358215 130.03045749 -191.24150869 130.04119332 -193.42944336 130.04907227 C-195.65509402 130.0605823 -197.88071729 130.08101845 -200.10620117 130.1105957 C-203.33531303 130.1534844 -206.56360662 130.16947151 -209.79296875 130.1796875 C-210.77561203 130.19719559 -211.75825531 130.21470367 -212.77067566 130.23274231 C-219.88128291 130.21070809 -227.20191694 129.15776666 -232.74882507 124.30635071 C-237.43736927 118.89437245 -238.56095854 114.57735395 -238.40234375 107.5703125 C-237.932553 103.28272859 -236.63759001 100.21229927 -234.09375 96.75390625 C-232.9875849 95.93163747 -231.8610001 95.13634741 -230.71875 94.36499023 C-225.44667827 89.93707802 -224.38421559 83.71164786 -222.65625 77.2890625 C-222.28446434 75.96869863 -221.91089742 74.64883517 -221.53564453 73.32945251 C-220.75755779 70.57398622 -219.99621267 67.81463022 -219.24755859 65.05102539 C-218.29086385 61.52195946 -217.30057132 58.00345743 -216.29850769 54.48703861 C-215.52580615 51.76615635 -214.76733022 49.04147284 -214.01339722 46.31533623 C-213.47911104 44.38892016 -212.93605139 42.46494427 -212.39282227 40.54103088 C-210.13374137 32.18377002 -210.13374137 32.18377002 -211.09375 23.75390625 C-212.5377633 16.48447177 -211.92848968 11.25196656 -208.09375 4.75390625 C-203.40401809 -1.01434281 -196.86989511 -3.71784638 -189.57345581 -4.52484131 C-186.8555447 -4.6393664 -184.15383558 -4.66220553 -181.43359375 -4.64453125 C-179.94962852 -4.64883652 -179.94962852 -4.64883652 -178.4356842 -4.65322876 C-176.35742618 -4.65525822 -174.27914856 -4.6498072 -172.20092773 -4.63720703 C-169.03650908 -4.62112048 -165.87336415 -4.63710318 -162.70898438 -4.65625 C-160.67968471 -4.6542677 -158.65038583 -4.65042431 -156.62109375 -4.64453125 C-155.68442368 -4.65060394 -154.7477536 -4.65667664 -153.78269958 -4.66293335 C-147.84747947 -4.59996215 -143.56315628 -3.53146296 -138.09375 -1.24609375 C-135.15061735 -1.46144492 -132.87441157 -2.32119042 -130.07958984 -3.27807617 C-125.37721313 -4.60541771 -120.73921573 -4.55168627 -115.8828125 -4.546875 C-114.91524017 -4.55116013 -113.94766785 -4.55544525 -112.95077515 -4.55986023 C-110.91185282 -4.56558148 -108.87291009 -4.56612012 -106.83398438 -4.56176758 C-103.73531824 -4.55861063 -100.63761066 -4.58208443 -97.5390625 -4.60742188 C-95.54948036 -4.60969558 -93.55989568 -4.61039803 -91.5703125 -4.609375 C-90.19644882 -4.62318962 -90.19644882 -4.62318962 -88.79483032 -4.63728333 C-78.21202339 -4.56217671 -71.52227715 -1.6746209 -64.09375 5.75390625 C-62.58748047 4.93986328 -62.58748047 4.93986328 -61.05078125 4.109375 C-40.80231566 -6.59676754 -21.45492505 -8.64156703 0 0 Z " fill="#23794E" transform="translate(252.09375,22.24609375)"/>
<path d="M0 0 C1.41036026 -0.00430527 1.41036026 -0.00430527 2.84921265 -0.00869751 C4.83112187 -0.01073429 6.81305137 -0.00523149 8.79492188 0.00732422 C11.83248589 0.02341921 14.86872658 0.00744389 17.90625 -0.01171875 C19.83333627 -0.00973695 21.76042172 -0.0058946 23.6875 0 C24.59690338 -0.00607269 25.50630676 -0.01214539 26.44326782 -0.0184021 C27.71005875 -0.00421738 27.71005875 -0.00421738 29.00244141 0.01025391 C29.74458893 0.01264069 30.48673645 0.01502747 31.25137329 0.01748657 C33.76291229 0.50574468 34.66852971 1.39076247 36.2109375 3.3984375 C36.3359375 5.7109375 36.3359375 5.7109375 35.2109375 8.3984375 C33.5423443 9.85845655 31.84006725 11.1456609 30 12.3828125 C27.16863627 15.57273321 26.38454994 19.3541907 25.2109375 23.3984375 C24.67585603 25.14976243 24.14069854 26.90106414 23.60546875 28.65234375 C23.07643897 30.42137167 22.54939654 32.19099418 22.0234375 33.9609375 C21.0953125 37.0753125 20.1671875 40.1896875 19.2109375 43.3984375 C28.1209375 43.3984375 37.0309375 43.3984375 46.2109375 43.3984375 C46.8709375 40.4284375 47.5309375 37.4584375 48.2109375 34.3984375 C48.72199584 32.27106547 49.24148405 30.1456811 49.7734375 28.0234375 C50.02222656 27.02570312 50.27101563 26.02796875 50.52734375 25 C51.0228326 23.11431099 51.59438805 21.24808585 52.2109375 19.3984375 C52.40552787 17.44257003 52.40552787 17.44257003 52.3984375 15.3984375 C52.41261719 14.7178125 52.42679687 14.0371875 52.44140625 13.3359375 C52.32034161 11.07229618 52.32034161 11.07229618 50.2109375 8.3984375 C49.8359375 5.8984375 49.8359375 5.8984375 50.2109375 3.3984375 C52.00485992 1.31736291 53.52350685 0.49260693 56.24755859 0.1194458 C58.86501498 0.00001534 61.46578076 -0.01712279 64.0859375 0 C65.52815674 -0.00430527 65.52815674 -0.00430527 66.99951172 -0.00869751 C69.03027944 -0.01073701 71.06106685 -0.00521512 73.09179688 0.00732422 C76.19966573 0.02337927 79.30623408 0.00747145 82.4140625 -0.01171875 C84.3880237 -0.0097363 86.3619841 -0.00589258 88.3359375 0 C89.26519043 -0.00607269 90.19444336 -0.01214539 91.15185547 -0.0184021 C97.61643491 0.05205101 97.61643491 0.05205101 100.828125 1.92333984 C102.2109375 3.3984375 102.2109375 3.3984375 102.1484375 5.5859375 C101.08476867 8.776944 100.55392311 9.05109293 97.8359375 10.7734375 C91.60062014 14.89638204 90.75433222 21.79448147 88.95703125 28.6484375 C88.10144704 31.80200444 87.08002069 34.8729497 86.02734375 37.96484375 C83.35759445 45.92299596 81.02156146 53.92711892 79.0703125 62.08984375 C78.41070038 64.62935042 77.69630015 67.11135352 76.9140625 69.61328125 C73.44507334 80.28446659 73.44507334 80.28446659 73.2109375 91.3984375 C74.2009375 92.8834375 74.2009375 92.8834375 75.2109375 94.3984375 C75.56325034 97.21694025 75.71758408 98.72611477 73.98036194 101.03141785 C71.70841302 102.78667722 70.43976195 102.77293521 67.58764648 102.77075195 C66.18620644 102.78009514 66.18620644 102.78009514 64.75645447 102.78962708 C63.24698997 102.77581245 63.24698997 102.77581245 61.70703125 102.76171875 C60.67280533 102.76221725 59.63857941 102.76271576 58.57301331 102.76322937 C56.386628 102.76088848 54.20024002 102.75115909 52.01391602 102.73461914 C48.65812223 102.71100565 45.30312147 102.71406079 41.94726562 102.72070312 C39.82551607 102.71512724 37.70376988 102.70801793 35.58203125 102.69921875 C34.57369736 102.70013016 33.56536346 102.70104156 32.526474 102.70198059 C31.12976219 102.68768257 31.12976219 102.68768257 29.70483398 102.6730957 C28.88337387 102.66848831 28.06191376 102.66388092 27.21556091 102.65913391 C25.2109375 102.3984375 25.2109375 102.3984375 23.2109375 100.3984375 C23.1484375 98.1484375 23.1484375 98.1484375 24.2109375 95.3984375 C25.86502057 93.82896226 27.58035851 92.46500897 29.421875 91.12109375 C33.74772841 86.95580695 34.92738111 81.25860407 36.2109375 75.5859375 C37.56615424 69.6999326 39.28721999 64.16959002 41.2109375 58.3984375 C32.3009375 58.3984375 23.3909375 58.3984375 14.2109375 58.3984375 C13.5509375 61.6984375 12.8909375 64.9984375 12.2109375 68.3984375 C11.15838523 72.06004357 10.05382464 75.68957592 8.890625 79.31640625 C7.6157145 83.45227661 6.79818962 87.01544812 7.2109375 91.3984375 C7.7265625 92.0790625 8.2421875 92.7596875 8.7734375 93.4609375 C10.2109375 95.3984375 10.2109375 95.3984375 10.0234375 98.0234375 C9.2109375 100.3984375 9.2109375 100.3984375 7.2109375 102.3984375 C5.19958496 102.65240479 5.19958496 102.65240479 2.70117188 102.65722656 C1.76680298 102.66353088 0.83243408 102.66983521 -0.13024902 102.67633057 C-1.64745544 102.67025787 -1.64745544 102.67025787 -3.1953125 102.6640625 C-4.23095337 102.66597595 -5.26659424 102.6678894 -6.33361816 102.66986084 C-8.52596275 102.67122347 -10.71831539 102.66752164 -12.91064453 102.65917969 C-16.27524866 102.64848142 -19.63931882 102.65907253 -23.00390625 102.671875 C-25.13020952 102.67055342 -27.25651245 102.66799106 -29.3828125 102.6640625 C-30.90001892 102.67013519 -30.90001892 102.67013519 -32.44787598 102.67633057 C-33.84942932 102.66687408 -33.84942932 102.66687408 -35.27929688 102.65722656 C-36.51601135 102.65483978 -36.51601135 102.65483978 -37.77770996 102.65240479 C-39.7890625 102.3984375 -39.7890625 102.3984375 -41.7890625 100.3984375 C-41.9140625 97.7734375 -41.9140625 97.7734375 -41.7890625 95.3984375 C-41.1290625 95.3984375 -40.4690625 95.3984375 -39.7890625 95.3984375 C-39.7890625 94.7384375 -39.7890625 94.0784375 -39.7890625 93.3984375 C-38.85578125 92.85316406 -37.9225 92.30789062 -36.9609375 91.74609375 C-33.08848208 88.87990446 -32.23222844 86.2983586 -31.0390625 81.8359375 C-30.80719238 81.0409082 -30.57532227 80.24587891 -30.33642578 79.42675781 C-29.79327369 77.55091269 -29.26118474 75.67184572 -28.73730469 73.79052734 C-27.62600628 69.81514626 -26.47773584 65.85115075 -25.328125 61.88671875 C-23.59117965 55.87868761 -21.86267468 49.86834015 -20.15625 43.8515625 C-19.95680786 43.14838394 -19.75736572 42.44520538 -19.55187988 41.72071838 C-17.81461157 35.55890599 -16.18788107 29.37026945 -14.59033203 23.17089844 C-13.7890625 20.3984375 -13.7890625 20.3984375 -12.7890625 19.3984375 C-12.43522945 14.00248352 -12.31388683 11.62908614 -15.7890625 7.3984375 C-15.7890625 5.3359375 -15.7890625 5.3359375 -14.7890625 3.3984375 C-10.19368856 -0.36183219 -5.65338357 -0.03792022 0 0 Z " fill="#FAEDDA" transform="translate(71.7890625,33.6015625)"/>
<path d="M0 0 C2.42259483 1.5209149 2.42259483 1.5209149 6.26171875 1.20703125 C8.36975983 -0.27499408 8.36975983 -0.27499408 10.32421875 -2.23046875 C14.40566287 -6.10823236 17.42528482 -7.21518231 23.1875 -7.140625 C27.02915706 -6.49673144 28.6967377 -4.67857243 31.26171875 -1.79296875 C32.23440475 2.09777526 30.56113352 5.72004797 29.24609375 9.3984375 C28.48204623 11.57839849 27.77430414 13.77813102 27.08984375 15.984375 C26.88125732 16.64904785 26.6726709 17.3137207 26.45776367 17.99853516 C26.04279391 19.32228071 25.63636559 20.64874128 25.23950195 21.97802734 C23.95759651 25.98835851 22.64092154 28.64284954 19.26171875 31.20703125 C16.11497366 32.22439996 13.44118287 32.07130074 10.26171875 31.20703125 C6.43998436 28.45344041 3.63040944 24.88923976 0.67578125 21.2578125 C-3.77901665 15.82484469 -7.45344556 12.72843374 -14.67578125 11.58203125 C-19.74757386 11.86707386 -23.27731078 14.67697954 -26.73828125 18.20703125 C-30.92431825 23.41835345 -33.28757041 28.48813014 -35.48828125 34.76953125 C-35.79121094 35.59388672 -36.09414062 36.41824219 -36.40625 37.26757812 C-39.88857299 46.94843603 -42.38979965 59.55480791 -38.48828125 69.45703125 C-36.22221056 73.02657261 -36.22221056 73.02657261 -32.73828125 75.20703125 C-29.02133892 75.61251587 -26.48114799 75.49404795 -22.98828125 74.14453125 C-19.27435352 70.94642682 -18.25052619 66.74376608 -16.73828125 62.20703125 C-16.69873891 59.874033 -16.69426393 57.53994936 -16.73828125 55.20703125 C-17.67800781 54.80871094 -17.67800781 54.80871094 -18.63671875 54.40234375 C-19.45398438 54.04914063 -20.27125 53.6959375 -21.11328125 53.33203125 C-22.33144531 52.80996094 -22.33144531 52.80996094 -23.57421875 52.27734375 C-25.73828125 51.20703125 -25.73828125 51.20703125 -27.73828125 49.20703125 C-27.98828125 46.20703125 -27.98828125 46.20703125 -27.73828125 43.20703125 C-25.73828125 41.20703125 -25.73828125 41.20703125 -23.41648865 40.95979309 C-22.44687698 40.96121811 -21.47726532 40.96264313 -20.47827148 40.96411133 C-19.38050888 40.9610347 -18.28274628 40.95795807 -17.15171814 40.95478821 C-15.9621199 40.96197372 -14.77252167 40.96915924 -13.546875 40.9765625 C-11.72350365 40.97724983 -11.72350365 40.97724983 -9.86329651 40.97795105 C-7.2901207 40.98097629 -4.71694677 40.98887062 -2.14379883 41.0012207 C1.81110059 41.01947072 5.76576602 41.0217305 9.72070312 41.02148438 C12.21484579 41.02639956 14.70898686 41.03222789 17.203125 41.0390625 C18.39474747 41.04017532 19.58636993 41.04128815 20.81410217 41.04243469 C22.45601784 41.05200447 22.45601784 41.05200447 24.13110352 41.06176758 C25.09991959 41.06557938 26.06873566 41.06939117 27.06690979 41.07331848 C29.26171875 41.20703125 29.26171875 41.20703125 30.26171875 42.20703125 C30.51066941 45.25667683 30.56653092 46.50832335 29.26171875 49.20703125 C26.8828125 51.0625 26.8828125 51.0625 23.94921875 52.95703125 C17.62775123 57.23668109 15.98528516 60.93073799 14.26171875 68.20703125 C13.92746856 69.53428023 13.59142605 70.86107871 13.25390625 72.1875 C12.72545257 74.28493802 12.20198708 76.38312356 11.69189453 78.48510742 C8.32672757 92.32765 8.32672757 92.32765 4.26171875 95.20703125 C1.67758853 95.53335486 -0.59675174 95.67173099 -3.17578125 95.64453125 C-5.15384766 95.67353516 -5.15384766 95.67353516 -7.171875 95.703125 C-10.73828125 95.20703125 -10.73828125 95.20703125 -13.1328125 93.3828125 C-15.05185317 90.78206881 -15.8918892 88.31046877 -16.73828125 85.20703125 C-19.6250579 86.51578683 -21.65893344 87.9448493 -23.92578125 90.14453125 C-31.79772744 96.93699115 -40.72444042 96.84670749 -50.73828125 96.20703125 C-59.75881916 95.34728255 -66.42578876 90.93743368 -72.55078125 84.39453125 C-81.87242683 73.06148651 -81.9825406 58.23980967 -80.73828125 44.20703125 C-77.85221198 27.5944487 -69.25153891 11.47652775 -55.67578125 1.39453125 C-38.0543389 -10.44555755 -17.74328338 -11.74313924 0 0 Z " fill="#FAEDDA" transform="translate(250.73828125,40.79296875)"/>
<path d="M0 0 C1.20591797 -0.00708984 2.41183594 -0.01417969 3.65429688 -0.02148438 C14.6946041 0.0569012 24.32801056 2.30510954 32.5390625 10.0703125 C38.41399625 16.52405746 40.36360778 22.67124956 40.25 31.25 C40.24315186 32.04462646 40.23630371 32.83925293 40.22924805 33.65795898 C40.05751265 39.95170743 38.87534468 44.89425324 35.8125 50.4375 C35.26916016 51.56671875 35.26916016 51.56671875 34.71484375 52.71875 C27.11438012 67.76509156 14.40297492 75.26206114 -1.1875 80.4375 C-6.30532954 81.95722551 -11.51786004 81.62179889 -16.8125 81.625 C-17.85535156 81.63724609 -18.89820313 81.64949219 -19.97265625 81.66210938 C-31.90734955 81.68445899 -41.17710946 80.24890565 -49.9765625 71.69921875 C-57.16940872 63.70913588 -58.75633908 55.92704228 -58.53125 45.3984375 C-57.45072221 32.94781049 -49.52289759 22.01318311 -40.73046875 13.57421875 C-28.69843977 3.46435723 -15.4677858 -0.2587703 0 0 Z " fill="#FBEDDB" transform="translate(336.1875,55.5625)"/>
<path d="M0 0 C4.42105263 0.42105263 4.42105263 0.42105263 6 2 C6.46760097 11.66375331 4.96243548 20.38202221 1.12890625 29.265625 C-0.20000026 32.4844297 -1.2728144 35.75948719 -2.375 39.0625 C-6.64262738 51.04065661 -6.64262738 51.04065661 -11 55 C-13.5625 55.3515625 -13.5625 55.3515625 -16 55 C-18.45452022 52.54547978 -18.3503025 51.77057327 -18.4375 48.375 C-18.30626184 41.19439791 -16.03552899 34.77233307 -13.70556641 28.06835938 C-13.01003402 26.02941461 -12.36340392 23.98102409 -11.73046875 21.921875 C-9.22761695 13.87154679 -6.65236101 5.62364539 0 0 Z " fill="#24794E" transform="translate(333,69)"/>
<path d="M0 0 C0.920728 0.00007553 1.84145599 0.00015106 2.79008484 0.00022888 C4.27614983 0.00797081 4.27614983 0.00797081 5.79223633 0.01586914 C6.80900955 0.01728409 7.82578278 0.01869904 8.87336731 0.02015686 C12.12369721 0.02575832 15.37395846 0.03831107 18.62426758 0.05102539 C20.82674054 0.0560402 23.02921459 0.06060314 25.23168945 0.06469727 C30.63340562 0.07572822 36.0350817 0.09246777 41.43676758 0.11352539 C41.93176758 1.10352539 41.93176758 1.10352539 42.43676758 2.11352539 C41.86349228 2.12383286 41.29021698 2.13414032 40.6995697 2.14476013 C34.71318121 2.25324798 28.72693045 2.36780936 22.74072266 2.48583984 C20.50898124 2.52905363 18.27720965 2.57073784 16.04541016 2.61083984 C12.83071819 2.66887195 9.61617622 2.73247037 6.40161133 2.79711914 C4.91370338 2.82218788 4.91370338 2.82218788 3.39573669 2.84776306 C-1.67968657 2.95540387 -6.55725284 3.25943901 -11.56323242 4.11352539 C-11.89323242 5.10352539 -12.22323242 6.09352539 -12.56323242 7.11352539 C-16.12573242 8.30102539 -16.12573242 8.30102539 -19.56323242 9.11352539 C-14.3044307 3.21729316 -8.01232478 -0.02195157 0 0 Z " fill="#4C735C" transform="translate(64.563232421875,17.886474609375)"/>
<path d="M0 0 C0.87173355 -0.00953201 1.7434671 -0.01906403 2.64161682 -0.02888489 C4.06026283 -0.02751778 4.06026283 -0.02751778 5.50756836 -0.02612305 C6.48221542 -0.03040817 7.45686249 -0.0346933 8.46104431 -0.03910828 C10.52984846 -0.04486135 12.59867285 -0.04534468 14.66748047 -0.04101562 C17.81050008 -0.03787864 20.95255744 -0.06122233 24.09545898 -0.08666992 C26.10782759 -0.08894533 28.12019872 -0.08964529 30.13256836 -0.08862305 C31.06416275 -0.09783279 31.99575714 -0.10704254 32.95558167 -0.11653137 C38.9063637 -0.07506099 44.38665152 0.5983856 49.78491211 3.2746582 C50.27991211 4.2646582 50.27991211 4.2646582 50.78491211 5.2746582 C50.12005295 5.13508698 49.45519379 4.99551575 48.77018738 4.85171509 C42.01042994 3.51592386 35.52904243 2.94431223 28.64819336 2.8605957 C27.14001289 2.83154648 27.14001289 2.83154648 25.60136414 2.8019104 C22.43346267 2.74279067 19.26552352 2.69600315 16.09741211 2.6496582 C13.93138185 2.61141603 11.76536578 2.57236082 9.59936523 2.5324707 C4.32800815 2.43714611 -0.94343656 2.35190733 -6.21508789 2.2746582 C-3.81494778 -0.12548191 -3.27390587 0.01964511 0 0 Z " fill="#4C745D" transform="translate(130.215087890625,17.725341796875)"/>
<path d="M0 0 C0.99 0.33 1.98 0.66 3 1 C-2.75474648 4.67664358 -7.10424654 5.1812883 -13.875 5.1875 C-14.91720703 5.20586914 -14.91720703 5.20586914 -15.98046875 5.22460938 C-20.37692393 5.23702874 -23.91709235 4.61908407 -28 3 C-25.00010092 2.00003364 -23.12414801 1.90936728 -20 1.97265625 C-19.030625 1.98490234 -18.06125 1.99714844 -17.0625 2.00976562 C-15.02076236 2.0449231 -12.97908823 2.08398603 -10.9375 2.12695312 C-9.968125 2.13791016 -8.99875 2.14886719 -8 2.16015625 C-6.6696875 2.18541382 -6.6696875 2.18541382 -5.3125 2.21118164 C-2.72358546 2.16003016 -2.72358546 2.16003016 0 0 Z " fill="#4A7660" transform="translate(262,147)"/>
<path d="M0 0 C7.45130256 3.92037173 12.36921048 11.28260387 15 19.1875 C15.33 20.445625 15.66 21.70375 16 23 C15.34 23 14.68 23 14 23 C13.8040625 22.39414063 13.608125 21.78828125 13.40625 21.1640625 C10.94401621 14.26556265 6.87868291 5.43934145 0 2 C0 1.34 0 0.68 0 0 Z " fill="#62937B" transform="translate(375,51)"/>
<path d="M0 0 C1.26823485 3.65393537 0.75715321 6.49070026 0.0625 10.25 C-0.13214844 11.32765625 -0.32679688 12.4053125 -0.52734375 13.515625 C-0.68332031 14.33546875 -0.83929688 15.1553125 -1 16 C-0.34 16.33 0.32 16.66 1 17 C-0.32 16.67 -1.64 16.34 -3 16 C-3.55353075 4.29384966 -3.55353075 4.29384966 0 0 Z " fill="#488961" transform="translate(318,106)"/>
<path d="M0 0 C0.66 0.33 1.32 0.66 2 1 C0.92173635 2.27513763 -0.16285519 3.54492569 -1.25 4.8125 C-1.85328125 5.52019531 -2.4565625 6.22789063 -3.078125 6.95703125 C-4.92370398 8.91889671 -6.79945332 10.45669625 -9 12 C-9.66 11.67 -10.32 11.34 -11 11 C-7.6189962 6.86378916 -4.33409466 3.18683431 0 0 Z " fill="#E7EBD4" transform="translate(194,43)"/>
<path d="M0 0 C0.33 0 0.66 0 1 0 C0.91266424 1.60517097 0.80447776 3.20921662 0.6875 4.8125 C0.62949219 5.70582031 0.57148438 6.59914063 0.51171875 7.51953125 C-0.06313581 10.30604 -0.8206856 11.24135754 -3 13 C-2.52060632 8.28596212 -2.03165952 4.33420699 0 0 Z " fill="#D3DEC7" transform="translate(335,92)"/>
<path d="M0 0 C0.33 0 0.66 0 1 0 C1.18451025 9.41002278 1.18451025 9.41002278 0 14 C-1.9451 11.08235 -2.45276317 9.37462715 -3 6 C-2.34 5.67 -1.68 5.34 -1 5 C-0.34444881 2.47266765 -0.34444881 2.47266765 0 0 Z " fill="#448960" transform="translate(338,71)"/>
<path d="M0 0 C2.125 0.9375 2.125 0.9375 4 2 C4 2.66 4 3.32 4 4 C4.66 4.33 5.32 4.66 6 5 C5.67 5.66 5.34 6.32 5 7 C3.35 5.68 1.7 4.36 0 3 C-0.99 3.66 -1.98 4.32 -3 5 C-2.625 3.0625 -2.625 3.0625 -2 1 C-1.34 0.67 -0.68 0.34 0 0 Z " fill="#599074" transform="translate(274,135)"/>
<path d="M0 0 C0.66 0 1.32 0 2 0 C1.34 3.3 0.68 6.6 0 10 C-2.14915785 6.77626323 -2.38286803 5.73296326 -2 2 C-1.34 1.34 -0.68 0.68 0 0 Z " fill="#328156" transform="translate(50,77)"/>
<path d="M0 0 C0 0.66 0 1.32 0 2 C1.65 2 3.3 2 5 2 C5.33 2.99 5.66 3.98 6 5 C1.62297367 3.77443263 -2.69677317 2.46939453 -7 1 C-3.375 -1.125 -3.375 -1.125 0 0 Z " fill="#46845D" transform="translate(241,33)"/>
<path d="M0 0 C0.66 0.66 1.32 1.32 2 2 C1.63318342 4.93453261 1.13562754 5.86437246 -1 8 C-1.99 7.67 -2.98 7.34 -4 7 C-2.68 4.69 -1.36 2.38 0 0 Z " fill="#2F7D51" transform="translate(371,106)"/>
<path d="M0 0 C0.66 0.99 1.32 1.98 2 3 C1.5390625 5.04296875 1.5390625 5.04296875 0.625 7.1875 C0.32851563 7.90292969 0.03203125 8.61835937 -0.2734375 9.35546875 C-0.51320313 9.89816406 -0.75296875 10.44085938 -1 11 C-1.33 10.34 -1.66 9.68 -2 9 C-2.99 8.67 -3.98 8.34 -5 8 C-4.0409375 7.13375 -4.0409375 7.13375 -3.0625 6.25 C-1.01776132 4.01937599 -0.41794801 2.92563609 0 0 Z " fill="#578B66" transform="translate(281,84)"/>
<path d="M0 0 C0.99 0 1.98 0 3 0 C3.144375 0.78375 3.28875 1.5675 3.4375 2.375 C3.87798925 4.96421018 3.87798925 4.96421018 5 7 C2.37812506 5.95125002 1.20628639 5.35068687 -0.25 2.875 C-0.4975 2.25625 -0.745 1.6375 -1 1 C-0.67 0.67 -0.34 0.34 0 0 Z " fill="#519177" transform="translate(168,134)"/>
<path d="M0 0 C0.66 0.99 1.32 1.98 2 3 C0.03533587 4.06775224 -1.96855359 5.06553465 -4 6 C-4.66 5.67 -5.32 5.34 -6 5 C-4.02 3.35 -2.04 1.7 0 0 Z " fill="#51876E" transform="translate(51,21)"/>
<path d="M0 0 C0 2 0 4 0 6 C0.66 6.66 1.32 7.32 2 8 C0.35 7.67 -1.3 7.34 -3 7 C-2.25 2.25 -2.25 2.25 0 0 Z " fill="#DFEAD4" transform="translate(98,127)"/>
<path d="M0 0 C0.33 0 0.66 0 1 0 C1.125 6.625 1.125 6.625 0 10 C-0.66 10 -1.32 10 -2 10 C-1.54177532 6.53058454 -1.10868317 3.32604951 0 0 Z " fill="#337D53" transform="translate(96,57)"/>
<path d="M0 0 C0.33 0.99 0.66 1.98 1 3 C-0.65 4.32 -2.3 5.64 -4 7 C-4 4 -4 4 -2 1.8125 C-1.34 1.214375 -0.68 0.61625 0 0 Z " fill="#388057" transform="translate(168,45)"/>
<path d="M0 0 C-3.26545761 1.88391785 -6.28111761 2.49287967 -10 3 C-10 2.34 -10 1.68 -10 1 C-6.21812119 -0.83691257 -4.05431692 -1.15837626 0 0 Z " fill="#477D64" transform="translate(127,20)"/>
<path d="M0 0 C2 1 2 1 2 1 Z " fill="#000000" transform="translate(290,150)"/>
<path d="M0 0 C2 1 2 1 2 1 Z " fill="#000000" transform="translate(87,150)"/>
<path d="M0 0 C2 1 2 1 2 1 Z " fill="#000000" transform="translate(273,140)"/>
<path d="" fill="#000000" transform="translate(0,0)"/>
<path d="M0 0 C2 1 2 1 2 1 Z " fill="#000000" transform="translate(244,18)"/>
<path d="" fill="#000000" transform="translate(0,0)"/>
<path d="" fill="#000000" transform="translate(0,0)"/>
<path d="" fill="#000000" transform="translate(0,0)"/>
<path d="" fill="#000000" transform="translate(0,0)"/>
<path d="" fill="#000000" transform="translate(0,0)"/>
<path d="" fill="#000000" transform="translate(0,0)"/>
<path d="" fill="#000000" transform="translate(0,0)"/>
<path d="" fill="#000000" transform="translate(0,0)"/>
<path d="" fill="#000000" transform="translate(0,0)"/>
<path d="" fill="#000000" transform="translate(0,0)"/>
<path d="" fill="#000000" transform="translate(0,0)"/>
<path d="" fill="#000000" transform="translate(0,0)"/>
<path d="" fill="#000000" transform="translate(0,0)"/>
<path d="" fill="#000000" transform="translate(0,0)"/>
<path d="" fill="#000000" transform="translate(0,0)"/>
<path d="" fill="#000000" transform="translate(0,0)"/>
<path d="" fill="#000000" transform="translate(0,0)"/>
<path d="" fill="#000000" transform="translate(0,0)"/>
<path d="" fill="#000000" transform="translate(0,0)"/>
<path d="" fill="#000000" transform="translate(0,0)"/>
<path d="" fill="#000000" transform="translate(0,0)"/>
<path d="" fill="#000000" transform="translate(0,0)"/>
<path d="" fill="#000000" transform="translate(0,0)"/>
<path d="" fill="#000000" transform="translate(0,0)"/>
<path d="" fill="#000000" transform="translate(0,0)"/>
<path d="" fill="#000000" transform="translate(0,0)"/>
<path d="" fill="#000000" transform="translate(0,0)"/>
<path d="" fill="#000000" transform="translate(0,0)"/>
<path d="" fill="#000000" transform="translate(0,0)"/>
<path d="" fill="#000000" transform="translate(0,0)"/>
<path d="" fill="#000000" transform="translate(0,0)"/>
<path d="" fill="#000000" transform="translate(0,0)"/>
<path d="" fill="#000000" transform="translate(0,0)"/>
<path d="" fill="#000000" transform="translate(0,0)"/>
<path d="" fill="#000000" transform="translate(0,0)"/>
<path d="" fill="#000000" transform="translate(0,0)"/>
<path d="" fill="#000000" transform="translate(0,0)"/>
<path d="" fill="#000000" transform="translate(0,0)"/>
<path d="" fill="#000000" transform="translate(0,0)"/>
<path d="" fill="#000000" transform="translate(0,0)"/>
<path d="" fill="#000000" transform="translate(0,0)"/>
<path d="" fill="#000000" transform="translate(0,0)"/>
<path d="" fill="#000000" transform="translate(0,0)"/>
<path d="" fill="#000000" transform="translate(0,0)"/>
<path d="" fill="#000000" transform="translate(0,0)"/>
<path d="" fill="#000000" transform="translate(0,0)"/>
<path d="" fill="#000000" transform="translate(0,0)"/>
<path d="" fill="#000000" transform="translate(0,0)"/>
<path d="" fill="#000000" transform="translate(0,0)"/>
<path d="" fill="#000000" transform="translate(0,0)"/>
<path d="" fill="#000000" transform="translate(0,0)"/>
<path d="" fill="#000000" transform="translate(0,0)"/>
<path d="" fill="#000000" transform="translate(0,0)"/>
<path d="" fill="#000000" transform="translate(0,0)"/>
<path d="" fill="#000000" transform="translate(0,0)"/>
<path d="" fill="#000000" transform="translate(0,0)"/>
<path d="" fill="#000000" transform="translate(0,0)"/>
<path d="" fill="#000000" transform="translate(0,0)"/>
<path d="" fill="#000000" transform="translate(0,0)"/>
<path d="" fill="#000000" transform="translate(0,0)"/>
<path d="" fill="#000000" transform="translate(0,0)"/>
<path d="" fill="#000000" transform="translate(0,0)"/>
<path d="" fill="#000000" transform="translate(0,0)"/>
<path d="" fill="#000000" transform="translate(0,0)"/>
<path d="" fill="#000000" transform="translate(0,0)"/>
<path d="" fill="#000000" transform="translate(0,0)"/>
<path d="" fill="#000000" transform="translate(0,0)"/>
<path d="" fill="#000000" transform="translate(0,0)"/>
<path d="" fill="#000000" transform="translate(0,0)"/>
<path d="" fill="#000000" transform="translate(0,0)"/>
<path d="" fill="#000000" transform="translate(0,0)"/>
<path d="" fill="#000000" transform="translate(0,0)"/>
<path d="" fill="#000000" transform="translate(0,0)"/>
<path d="" fill="#000000" transform="translate(0,0)"/>
<path d="" fill="#000000" transform="translate(0,0)"/>
<path d="" fill="#000000" transform="translate(0,0)"/>
<path d="" fill="#000000" transform="translate(0,0)"/>
<path d="" fill="#000000" transform="translate(0,0)"/>
<path d="" fill="#000000" transform="translate(0,0)"/>
<path d="" fill="#000000" transform="translate(0,0)"/>
<path d="" fill="#000000" transform="translate(0,0)"/>
<path d="" fill="#000000" transform="translate(0,0)"/>
<path d="" fill="#000000" transform="translate(0,0)"/>
<path d="" fill="#000000" transform="translate(0,0)"/>
<path d="" fill="#000000" transform="translate(0,0)"/>
<path d="" fill="#000000" transform="translate(0,0)"/>
<path d="" fill="#000000" transform="translate(0,0)"/>
<path d="" fill="#000000" transform="translate(0,0)"/>
<path d="" fill="#000000" transform="translate(0,0)"/>
<path d="" fill="#000000" transform="translate(0,0)"/>
<path d="" fill="#000000" transform="translate(0,0)"/>
<path d="" fill="#000000" transform="translate(0,0)"/>
<path d="" fill="#000000" transform="translate(0,0)"/>
<path d="" fill="#000000" transform="translate(0,0)"/>
<path d="" fill="#000000" transform="translate(0,0)"/>
</svg>
