<?xml version="1.0" encoding="UTF-8"?>
<svg version="1.1" xmlns="http://www.w3.org/2000/svg" width="420" height="594">
<path d="M0 0 C2 0.66666667 4 1.33333333 6 2 C6.72316406 2.20625 7.44632813 2.4125 8.19140625 2.625 C12.02827642 3.76762124 15.10725459 4.81307695 18.125 7.5 C20.71297586 9.75041379 22.72517541 10.80717498 25.84130859 12.08496094 C30.38689071 14.01176955 34.80421355 16.23035725 39.25 18.375 C46.79239066 22.01133139 54.3627661 25.56679956 62 29 C62 29.66 62 30.32 62 31 C62.99 31.12375 62.99 31.12375 64 31.25 C68.0408127 32.26020317 72.98769751 33.98769751 76 37 C76.12453536 39.02059787 76.17810054 41.04557527 76.20532227 43.06982422 C76.2152162 43.71275673 76.22511013 44.35568924 76.23530388 45.01810455 C76.26734846 47.19692695 76.2919867 49.37576713 76.31640625 51.5546875 C76.33720442 53.12196221 76.3582945 54.68923308 76.37965393 56.25650024 C76.43640838 60.55968578 76.48561184 64.86292738 76.53263092 69.16622925 C76.5624147 71.86726415 76.59385845 74.5682754 76.62567139 77.26928711 C76.98585364 108.23142529 77.10786219 139.19341689 77.12293625 170.15750885 C77.12500503 173.50814548 77.12876819 176.85877688 77.13284302 180.20941162 C77.13867514 185.49705309 77.13886598 190.78466505 77.13438225 196.07230759 C77.13334269 198.03184363 77.13390702 199.99138124 77.13614082 201.95091629 C77.13867247 204.62941696 77.13492877 207.30783372 77.12939453 209.98632812 C77.13142159 210.77621061 77.13344866 211.5660931 77.13553715 212.37991142 C77.11431439 217.77137121 77.11431439 217.77137121 76 220 C75.56181518 223.6233098 75.18093501 227.24561874 74.83789062 230.87890625 C74.2148475 236.7851525 74.2148475 236.7851525 72 239 C69.55523842 239.19208289 67.22680453 239.25481527 64.78125 239.23046875 C64.00783768 239.2304184 63.23442535 239.23036804 62.43757629 239.23031616 C59.79157419 239.22661156 57.14592709 239.20738014 54.5 239.1875 C52.61352695 239.17986229 50.72705221 239.17263271 48.84057617 239.16577148 C41.8934996 239.13310383 34.94680393 239.06816934 28 239 C27.26966805 238.99296555 26.53933609 238.98593109 25.78687286 238.97868347 C14.14385529 238.8663438 2.50110659 238.73658596 -9.14157104 238.5933876 C-11.69511845 238.56240757 -14.24867922 238.5328374 -16.80224609 238.50350952 C-20.85976337 238.45638578 -24.9171779 238.403889 -28.97457314 238.34724808 C-30.49297253 238.32677268 -32.01139541 238.30796728 -33.52983665 238.29087448 C-35.61723498 238.26699036 -37.70445535 238.23698604 -39.79174805 238.20532227 C-40.97141647 238.18977798 -42.1510849 238.1742337 -43.36650085 238.15821838 C-46 238 -46 238 -47 237 C-47.54307072 233.51339468 -47.96648655 230.01713326 -48.40234375 226.515625 C-48.82466109 223.13504659 -48.82466109 223.13504659 -50.018116 220.74395466 C-51.26830139 217.25020996 -51.27646111 214.29232342 -51.30780029 210.58110046 C-51.3165648 209.84334989 -51.32532931 209.10559931 -51.33435941 208.34549266 C-51.36102596 205.87834833 -51.37346779 203.41134667 -51.38574219 200.9440918 C-51.40155243 199.1730994 -51.41809085 197.40211337 -51.43530273 195.63113403 C-51.48763515 189.82055775 -51.51834101 184.00995337 -51.546875 178.19921875 C-51.55759767 176.1968719 -51.56835269 174.19452523 -51.57913971 172.19217873 C-51.62237597 163.86328851 -51.65984998 155.5344059 -51.68238449 147.20543194 C-51.7148735 135.2769773 -51.78127296 123.34982434 -51.89518619 111.4218604 C-51.97259966 103.02934717 -52.01165095 94.63718205 -52.02222562 86.24432117 C-52.02952941 81.23344718 -52.05352965 76.22396315 -52.11843109 71.21347618 C-52.17862635 66.499027 -52.19120966 61.78680741 -52.16766357 57.07205582 C-52.16722236 55.34505328 -52.18381388 53.6179468 -52.21897125 51.89130211 C-52.46944568 38.87860405 -52.46944568 38.87860405 -48.86466217 34.2700901 C-46.33310861 32.21023857 -43.83989073 30.59817114 -41 29 C-39.38578901 27.86836066 -37.7800844 26.72437763 -36.1875 25.5625 C-34.45989262 24.37273265 -32.73059962 23.18541072 -31 22 C-29.37431824 20.86995292 -27.74864612 19.73989187 -26.12329102 18.609375 C-21.00556336 15.05179459 -15.85854229 11.55355537 -10.609375 8.19140625 C-8.84971633 7.07675633 -8.84971633 7.07675633 -8 5 C-6.40625 3.96484375 -6.40625 3.96484375 -4.5 2.9375 C-2.0882696 1.6858579 -2.0882696 1.6858579 0 0 Z " fill="#F8EFE6" transform="translate(197,241)"/>
<path d="M0 0 C2 0.66666667 4 1.33333333 6 2 C6.72316406 2.20625 7.44632813 2.4125 8.19140625 2.625 C12.02827642 3.76762124 15.10725459 4.81307695 18.125 7.5 C20.71297586 9.75041379 22.72517541 10.80717498 25.84130859 12.08496094 C30.38689071 14.01176955 34.80421355 16.23035725 39.25 18.375 C46.79239066 22.01133139 54.3627661 25.56679956 62 29 C62 29.66 62 30.32 62 31 C62.99 31.12375 62.99 31.12375 64 31.25 C68.0408127 32.26020317 72.98769751 33.98769751 76 37 C76.12453536 39.02059787 76.17810054 41.04557527 76.20532227 43.06982422 C76.2152162 43.71275673 76.22511013 44.35568924 76.23530388 45.01810455 C76.26734846 47.19692695 76.2919867 49.37576713 76.31640625 51.5546875 C76.33720442 53.12196221 76.3582945 54.68923308 76.37965393 56.25650024 C76.43640838 60.55968578 76.48561184 64.86292738 76.53263092 69.16622925 C76.5624147 71.86726415 76.59385845 74.5682754 76.62567139 77.26928711 C76.98585364 108.23142529 77.10786219 139.19341689 77.12293625 170.15750885 C77.12500503 173.50814548 77.12876819 176.85877688 77.13284302 180.20941162 C77.13867514 185.49705309 77.13886598 190.78466505 77.13438225 196.07230759 C77.13334269 198.03184363 77.13390702 199.99138124 77.13614082 201.95091629 C77.13867247 204.62941696 77.13492877 207.30783372 77.12939453 209.98632812 C77.13142159 210.77621061 77.13344866 211.5660931 77.13553715 212.37991142 C77.11431439 217.77137121 77.11431439 217.77137121 76 220 C75.56181518 223.6233098 75.18093501 227.24561874 74.83789062 230.87890625 C74.2148475 236.7851525 74.2148475 236.7851525 72 239 C69.55523842 239.19208289 67.22680453 239.25481527 64.78125 239.23046875 C64.00783768 239.2304184 63.23442535 239.23036804 62.43757629 239.23031616 C59.79157419 239.22661156 57.14592709 239.20738014 54.5 239.1875 C52.61352695 239.17986229 50.72705221 239.17263271 48.84057617 239.16577148 C41.8934996 239.13310383 34.94680393 239.06816934 28 239 C27.26966805 238.99296555 26.53933609 238.98593109 25.78687286 238.97868347 C14.14385529 238.8663438 2.50110659 238.73658596 -9.14157104 238.5933876 C-11.69511845 238.56240757 -14.24867922 238.5328374 -16.80224609 238.50350952 C-20.85976337 238.45638578 -24.9171779 238.403889 -28.97457314 238.34724808 C-30.49297253 238.32677268 -32.01139541 238.30796728 -33.52983665 238.29087448 C-35.61723498 238.26699036 -37.70445535 238.23698604 -39.79174805 238.20532227 C-40.97141647 238.18977798 -42.1510849 238.1742337 -43.36650085 238.15821838 C-46 238 -46 238 -47 237 C-47.54307072 233.51339468 -47.96648655 230.01713326 -48.40234375 226.515625 C-48.82466109 223.13504659 -48.82466109 223.13504659 -50.018116 220.74395466 C-51.26830139 217.25020996 -51.27646111 214.29232342 -51.30780029 210.58110046 C-51.3165648 209.84334989 -51.32532931 209.10559931 -51.33435941 208.34549266 C-51.36102596 205.87834833 -51.37346779 203.41134667 -51.38574219 200.9440918 C-51.40155243 199.1730994 -51.41809085 197.40211337 -51.43530273 195.63113403 C-51.48763515 189.82055775 -51.51834101 184.00995337 -51.546875 178.19921875 C-51.55759767 176.1968719 -51.56835269 174.19452523 -51.57913971 172.19217873 C-51.62237597 163.86328851 -51.65984998 155.5344059 -51.68238449 147.20543194 C-51.7148735 135.2769773 -51.78127296 123.34982434 -51.89518619 111.4218604 C-51.97259966 103.02934717 -52.01165095 94.63718205 -52.02222562 86.24432117 C-52.02952941 81.23344718 -52.05352965 76.22396315 -52.11843109 71.21347618 C-52.17862635 66.499027 -52.19120966 61.78680741 -52.16766357 57.07205582 C-52.16722236 55.34505328 -52.18381388 53.6179468 -52.21897125 51.89130211 C-52.46944568 38.87860405 -52.46944568 38.87860405 -48.86466217 34.2700901 C-46.33310861 32.21023857 -43.83989073 30.59817114 -41 29 C-39.38578901 27.86836066 -37.7800844 26.72437763 -36.1875 25.5625 C-34.45989262 24.37273265 -32.73059962 23.18541072 -31 22 C-29.37431824 20.86995292 -27.74864612 19.73989187 -26.12329102 18.609375 C-21.00556336 15.05179459 -15.85854229 11.55355537 -10.609375 8.19140625 C-8.84971633 7.07675633 -8.84971633 7.07675633 -8 5 C-6.40625 3.96484375 -6.40625 3.96484375 -4.5 2.9375 C-2.0882696 1.6858579 -2.0882696 1.6858579 0 0 Z M12 12 C11.04824871 13.1595704 10.13941515 14.35445417 9.25 15.5625 C4.7617656 20.84058931 -0.92334763 23.32148784 -7.10205078 26.13232422 C-10.26106958 27.57651676 -13.38151627 29.09572341 -16.5 30.625 C-17.6034375 31.15351563 -18.706875 31.68203125 -19.84375 32.2265625 C-28.94718432 37.34161099 -37.14700809 46.8362163 -40 57 C-41.04959783 65.3729281 -40.02951782 72.11325198 -35 79 C-31.71202593 82.42969709 -28.28230793 85.85884603 -24 88 C-25.44282059 91.44758183 -27.24317911 93.28029268 -30.125 95.625 C-31.45281461 96.70709803 -32.75453824 97.82405239 -34 99 C-34 99.66 -34 100.32 -34 101 C-34.99 101 -35.98 101 -37 101 C-43.72546782 108.98649304 -44.44412832 118.80640251 -44.35644531 128.85961914 C-44.35848969 130.00064087 -44.36053406 131.1416626 -44.36264038 132.31726074 C-44.36562817 136.05672677 -44.34723874 139.79574327 -44.328125 143.53515625 C-44.32506522 146.14163606 -44.32319077 148.7481175 -44.32244873 151.354599 C-44.31877155 156.79887613 -44.30387301 162.24302599 -44.28125 167.68725586 C-44.25224394 174.68194429 -44.24201209 181.67653118 -44.2375679 188.67127323 C-44.23402237 194.04393142 -44.22361652 199.41656681 -44.21169281 204.78921318 C-44.20598028 207.37014004 -44.20122484 209.9510692 -44.19742584 212.53199959 C-44.19059232 216.12301845 -44.17697721 219.71394269 -44.16113281 223.30493164 C-44.16001495 224.37966232 -44.15889709 225.45439301 -44.15774536 226.56169128 C-44.15203522 227.53307037 -44.14632507 228.50444946 -44.14044189 229.50526428 C-44.13746723 230.35415254 -44.13449257 231.20304079 -44.13142776 232.07765293 C-44.21100258 234.00807369 -44.21100258 234.00807369 -43 235 C-41.5325104 235.09565123 -40.06043116 235.12188309 -38.58982849 235.12025452 C-37.63765442 235.12162918 -36.68548035 235.12300385 -35.70445251 235.12442017 C-34.65141434 235.12082489 -33.59837616 235.11722961 -32.51342773 235.11352539 C-31.41112823 235.11367142 -30.30882874 235.11381744 -29.17312622 235.1139679 C-25.50992908 235.11326821 -21.84678206 235.10547324 -18.18359375 235.09765625 C-15.65153532 235.09579227 -13.11947652 235.09436827 -10.5874176 235.09336853 C-4.59151751 235.08993346 1.40436089 235.08204269 7.40025228 235.07201904 C14.22481058 235.06085677 21.04936972 235.05534717 27.87393486 235.05032361 C41.91596664 235.03986004 55.95798233 235.0222613 70 235 C70.09369131 219.80475882 70.16410018 204.60953102 70.20724869 189.41406536 C70.22782123 182.35756934 70.25583927 175.30125342 70.30175781 168.24487305 C70.34608162 161.4302736 70.36916334 154.61586106 70.37950897 147.80112648 C70.38687825 145.20610428 70.40126857 142.61109186 70.42292023 140.01614952 C70.45211613 136.37081491 70.45594909 132.72624397 70.45410156 129.08081055 C70.46848267 128.01697144 70.48286377 126.95313232 70.49768066 125.85705566 C70.44289251 115.81351353 68.01774496 107.3006387 61.015625 99.91796875 C58.00997825 97.05794442 54.90229713 94.32880327 51.72265625 91.6640625 C51.15417969 91.11492187 50.58570313 90.56578125 50 90 C50 89.34 50 88.68 50 88 C51.5390625 86.73828125 51.5390625 86.73828125 53.625 85.3125 C59.3028037 81.18501859 63.7915038 76.78465949 66 70 C67.51132424 59.17368692 64.50120031 51.53905717 58.4296875 42.71875 C51.51840874 34.03791677 41.76955228 29.79294455 31.79248047 25.63134766 C25.41118189 22.89869731 19.54604895 19.50004296 15.39453125 13.79296875 C14.93433594 13.20128906 14.47414062 12.60960937 14 12 C13.34 12 12.68 12 12 12 Z " fill="#EBE5EA" transform="translate(197,241)"/>
<path d="M0 0 C4.50802601 1.25805377 7.4912812 2.90407165 11 6 C9.54204391 11.34583901 6.29241073 14.69760163 2 18 C-3.57408351 21.17038951 -9.38305841 23.8168252 -15.22265625 26.45703125 C-27.3305436 32.12820946 -36.3041719 40.50444699 -41.875 52.75 C-44.21963971 59.78391912 -44.18082009 68.00719768 -41.375 74.875 C-38.29451632 80.82841704 -33.70943922 85.32100974 -29 90 C-29.65226562 90.54527344 -30.30453125 91.09054687 -30.9765625 91.65234375 C-39.20159991 98.74916807 -46.24554768 106.02853894 -47.19594193 117.33001518 C-47.28489093 120.06315901 -47.31273258 122.79055295 -47.31884766 125.52514648 C-47.32889328 126.56004715 -47.3389389 127.59494781 -47.34928894 128.66120911 C-47.38005362 132.06449861 -47.39713758 135.46770967 -47.4140625 138.87109375 C-47.43277952 141.23764213 -47.45235334 143.60418387 -47.4727478 145.97071838 C-47.52401837 152.18651411 -47.56367139 158.40233147 -47.60089111 164.6182251 C-47.64096249 170.96624072 -47.69204056 177.31416677 -47.7421875 183.66210938 C-47.83888676 196.10800995 -47.92331084 208.55396116 -48 221 C-49.47324657 219.94864941 -49.47324657 219.94864941 -51 218 C-51.30958057 215.52575033 -51.43493635 213.2983481 -51.42805481 210.8216095 C-51.43767374 210.08556777 -51.44729267 209.34952605 -51.45720309 208.59118003 C-51.48562414 206.11774453 -51.49247459 203.64472529 -51.49926758 201.17114258 C-51.51478819 199.40044123 -51.53148426 197.62974986 -51.54927063 195.85906982 C-51.59294106 191.04276394 -51.61637303 186.2265717 -51.63349748 181.41010499 C-51.64450869 178.40069749 -51.65879394 175.39132214 -51.67401695 172.38193321 C-51.72042551 162.96544039 -51.75398529 153.549024 -51.7700327 144.1324299 C-51.78876212 133.26387806 -51.85015187 122.39667399 -51.94853479 111.5285576 C-52.02195472 103.12757055 -52.05691163 94.7269653 -52.06289595 86.32566184 C-52.06734139 81.30808578 -52.08808524 76.2918421 -52.14899635 71.2746067 C-52.20529263 66.55193527 -52.21376587 61.83154439 -52.18595695 57.10864258 C-52.1839226 55.3784331 -52.19890319 53.64810443 -52.2324295 51.91821861 C-52.47050391 38.88044292 -52.47050391 38.88044292 -48.8636837 34.26813316 C-46.33239666 32.20848329 -43.83995256 30.59733542 -41 29 C-39.38576531 27.86839447 -37.78005768 26.72441426 -36.1875 25.5625 C-34.45989262 24.37273265 -32.73059962 23.18541072 -31 22 C-29.37431824 20.86995292 -27.74864612 19.73989187 -26.12329102 18.609375 C-21.00556336 15.05179459 -15.85854229 11.55355537 -10.609375 8.19140625 C-8.84971633 7.07675633 -8.84971633 7.07675633 -8 5 C-6.40625 3.96484375 -6.40625 3.96484375 -4.5 2.9375 C-2.0882696 1.6858579 -2.0882696 1.6858579 0 0 Z " fill="#D6944A" transform="translate(197,241)"/>
<path d="M0 0 C7.79330711 1.55866142 15.15278868 5.95131266 22.25 9.375 C29.79239066 13.01133139 37.3627661 16.56679956 45 20 C45 20.66 45 21.32 45 22 C45.66 22.0825 46.32 22.165 47 22.25 C51.0408127 23.26020317 55.98769751 24.98769751 59 28 C59.12453536 30.02059787 59.17810054 32.04557527 59.20532227 34.06982422 C59.22016316 35.03422298 59.22016316 35.03422298 59.23530388 36.01810455 C59.26734846 38.19692695 59.2919867 40.37576713 59.31640625 42.5546875 C59.33720442 44.12196221 59.3582945 45.68923308 59.37965393 47.25650024 C59.43640838 51.55968578 59.48561184 55.86292738 59.53263092 60.16622925 C59.5624147 62.86726415 59.59385845 65.5682754 59.62567139 68.26928711 C59.98585364 99.23142529 60.10786219 130.19341689 60.12293625 161.15750885 C60.12500503 164.50814548 60.12876819 167.85877688 60.13284302 171.20941162 C60.13867514 176.49705309 60.13886598 181.78466505 60.13438225 187.07230759 C60.13334269 189.03184363 60.13390702 190.99138124 60.13614082 192.95091629 C60.13867247 195.62941696 60.13492877 198.30783372 60.12939453 200.98632812 C60.13142159 201.77621061 60.13344866 202.5660931 60.13553715 203.37991142 C60.11431439 208.77137121 60.11431439 208.77137121 59 211 C58.34 211 57.68 211 57 211 C56.99857498 209.71119934 56.99714996 208.42239868 56.99568176 207.09454346 C56.97896881 194.91314156 56.93606375 182.73207189 56.86790943 170.5508461 C56.83370654 164.28922034 56.8085398 158.02783685 56.80444336 151.76611328 C56.80014616 145.71638254 56.77156473 139.66719771 56.72656822 133.61763763 C56.71363875 131.31656837 56.70926928 129.01543362 56.71384621 126.71433258 C56.8868374 106.00033374 56.8868374 106.00033374 46.625 88.53515625 C43.84344398 85.90738818 40.97663753 83.40420723 38 81 C40.42726644 78.01792981 42.66901066 75.29062479 45.5625 72.75 C51.14011431 66.45730694 52.70099558 59.22588506 52.3828125 50.953125 C51.40702641 43.4256323 48.13001984 37.58836613 43.3671875 31.7890625 C42 30 42 30 41.0703125 27.8984375 C39.70108027 25.46979932 38.53867093 25.09502531 36 24 C34.16311943 22.9017446 32.33016312 21.7969134 30.5 20.6875 C26.33787694 18.23083225 22.24986068 16.19632879 17.75 14.4375 C10.83473644 11.6858768 4.87634452 7.68906861 0 2 C0 1.34 0 0.68 0 0 Z " fill="#DD8A10" transform="translate(214,250)"/>
<path d="M0 0 C0.66 0.33 1.32 0.66 2 1 C0.625 1.6875 -0.75 2.375 -2.125 3.0625 C-3.02734375 3.51625 -3.9296875 3.97 -4.859375 4.4375 C-7.11309558 5.55875402 -9.37113486 6.66179022 -11.640625 7.75 C-12.25921387 8.050271 -12.87780273 8.35054199 -13.51513672 8.65991211 C-15.30715364 9.5295743 -17.10273127 10.39188763 -18.8984375 11.25390625 C-21.83063211 12.90465057 -23.69527711 14.59530055 -26 17 C-26.66 17 -27.32 17 -28 17 C-28.268125 17.56847656 -28.53625 18.13695312 -28.8125 18.72265625 C-30.46738717 21.8963379 -32.52093167 24.74883927 -34.5625 27.68359375 C-38.44831602 33.94524836 -38.85680843 39.76673302 -38 47 C-35.31022784 55.83246114 -29.47325104 61.01783264 -22 66 C-23.43822475 69.41860752 -25.21535724 71.27907838 -28.0625 73.625 C-30.97875712 75.95485552 -30.97875712 75.95485552 -33 79 C-33.99 79 -34.98 79 -36 79 C-40.78884387 88.12979726 -42.59421041 96.86414378 -42.45410156 107.10253906 C-42.45497772 108.81691917 -42.45497772 108.81691917 -42.45587158 110.56593323 C-42.45311104 114.2994856 -42.42211447 118.03221413 -42.390625 121.765625 C-42.38315541 124.37163863 -42.37746588 126.97765792 -42.37347412 129.5836792 C-42.36111059 135.71392251 -42.32838039 141.84387574 -42.28807616 147.97399211 C-42.23873162 155.64797003 -42.21702995 163.32199644 -42.1953125 170.99609375 C-42.15651149 184.66428766 -42.07635838 198.33184988 -42 212 C13.935 212.495 13.935 212.495 71 213 C70.93337206 191.27875581 70.93337206 191.27875581 70.8281765 169.55779362 C70.78393127 161.7868195 70.7454697 154.01596103 70.72900391 146.24487305 C70.71454358 139.43012204 70.67933749 132.61572515 70.63169098 125.80112648 C70.61689714 123.20616443 70.60896014 120.6111536 70.60811615 118.01614952 C70.60573887 114.37066953 70.57859537 110.72612786 70.54589844 107.08081055 C70.5509288 106.01697144 70.55595917 104.95313232 70.56114197 103.85705566 C70.40163699 92.30082444 67.01162514 84.20833915 59 76 C58.00917812 74.84321546 57.02863697 73.67747944 56.0625 72.5 C55.381875 71.675 54.70125 70.85 54 70 C57.36182086 71.47889625 59.77356278 73.35418592 62.4375 75.875 C63.17871094 76.55304688 63.91992188 77.23109375 64.68359375 77.9296875 C71.0389441 86.35347397 72.73829097 95.13766953 72.56762695 105.46972656 C72.56835709 106.65166092 72.56908722 107.83359528 72.56983948 109.05134583 C72.56638693 112.91492398 72.52763378 116.77726035 72.48828125 120.640625 C72.47614553 123.33631715 72.47158637 126.03200821 72.46684265 128.72772217 C72.45138406 135.07053205 72.41046589 141.41290421 72.3600952 147.75552249 C72.29842941 155.69500349 72.27129077 163.63455756 72.24414062 171.57421875 C72.19562974 185.71648565 72.09544077 199.85779926 72 214 C33.72 214 -4.56 214 -44 214 C-44.495 160.045 -44.495 160.045 -45 105 C-45.33 136.35 -45.66 167.7 -46 200 C-46.66 199.67 -47.32 199.34 -48 199 C-47.96187862 185.36913137 -47.90242258 171.73853603 -47.81609726 158.1078825 C-47.77667077 151.77788477 -47.74445841 145.44802517 -47.72900391 139.11791992 C-47.71380583 133.00341096 -47.67930357 126.88928183 -47.63169098 120.7749424 C-47.6169098 118.44792809 -47.60896087 116.12085955 -47.60811615 113.79379845 C-47.60573499 110.52187477 -47.57856161 107.25099106 -47.54589844 103.97924805 C-47.5509288 103.0276178 -47.55595917 102.07598755 -47.56114197 101.09552002 C-47.42090429 91.95296724 -45.11277369 83.27744433 -38.5625 76.625 C-37.78132812 75.81546875 -37.00015625 75.0059375 -36.1953125 74.171875 C-35.10863281 73.09679687 -35.10863281 73.09679687 -34 72 C-33.44054687 71.42765625 -32.88109375 70.8553125 -32.3046875 70.265625 C-31.21896183 69.16128689 -30.1128739 68.07697474 -29 67 C-29.44730469 66.64808594 -29.89460938 66.29617188 -30.35546875 65.93359375 C-37.40836403 60.17397991 -42.31447045 54.28136374 -43.3359375 44.921875 C-43.4874234 32.62122009 -39.68420322 24.33548456 -31.4765625 15.328125 C-30 14 -30 14 -27.4375 13.1875 C-24.35590353 12.12294849 -22.22657076 10.97369416 -19.5 9.25 C-13.36058612 5.45966064 -6.82428203 2.35731248 0 0 Z " fill="#9D9092" transform="translate(196,263)"/>
<path d="M0 0 C0 0.66 0 1.32 0 2 C-0.66 2 -1.32 2 -2 2 C-1.34 3.98 -0.68 5.96 0 8 C-2.31 8 -4.62 8 -7 8 C-4.36 8.33 -1.72 8.66 1 9 C1 23.52 1 38.04 1 53 C-4.28 53 -9.56 53 -15 53 C-16.98983228 49.02033543 -17.22400716 48.32324868 -16.625 44.25 C-16.51414063 43.45078125 -16.40328125 42.6515625 -16.2890625 41.828125 C-16.19367188 41.22484375 -16.09828125 40.6215625 -16 40 C-14.515 39.505 -14.515 39.505 -13 39 C-13 38.34 -13 37.68 -13 37 C-13.66 37 -14.32 37 -15 37 C-17.33483826 33.35181523 -17.15441811 30.24649798 -17 26 C-17 25.01 -17 24.02 -17 23 C-17 13 -17 13 -15 11 C-15.66 10.34 -16.32 9.68 -17 9 C-13.90977865 0.65640235 -8.00305527 -0.80030553 0 0 Z M-2 21 C-1.67 22.65 -1.34 24.3 -1 26 C-1.99 26.33 -2.98 26.66 -4 27 C-4 29.31 -4 31.62 -4 34 C-6.31 34 -8.62 34 -11 34 C-11 34.33 -11 34.66 -11 35 C-8.36 35 -5.72 35 -3 35 C-2.690625 34.030625 -2.38125 33.06125 -2.0625 32.0625 C-1 29 -1 29 0 28 C0.04080783 26.00041636 0.04254356 23.99954746 0 22 C-0.66 21.67 -1.32 21.34 -2 21 Z " fill="#FBF3E9" transform="translate(265,422)"/>
<path d="M0 0 C0.99 0.66 1.98 1.32 3 2 C2.34 4.31 1.68 6.62 1 9 C-2.15680299 9.84181413 -4.72572803 10 -8 10 C-8.33 11.32 -8.66 12.64 -9 14 C-11.64 14.66 -14.28 15.32 -17 16 C-17 16.99 -17 17.98 -17 19 C-18.65 18.67 -20.3 18.34 -22 18 C-22.020625 18.86625 -22.04125 19.7325 -22.0625 20.625 C-23.088692 24.31929119 -23.52925193 24.65846564 -26.4375 26.8125 C-30.15471218 29.70282212 -30.97298188 32.06605195 -31.61328125 36.65625 C-32 39 -32 39 -33.01953125 41.88671875 C-35.42670894 49.53022718 -34.96106365 57.87711102 -31.2734375 65.00390625 C-28.13312225 69.92630224 -24.12345109 73.90320915 -20 78 C-20.67546875 78.59167969 -21.3509375 79.18335938 -22.046875 79.79296875 C-22.93890625 80.58316406 -23.8309375 81.37335938 -24.75 82.1875 C-25.63171875 82.96480469 -26.5134375 83.74210937 -27.421875 84.54296875 C-30.06486831 86.93373328 -30.06486831 86.93373328 -32.140625 89.80078125 C-32.75421875 90.52652344 -33.3678125 91.25226563 -34 92 C-34.99 92 -35.98 92 -37 92 C-37 92.99 -37 93.98 -37 95 C-37.66 95 -38.32 95 -39 95 C-39.23214892 85.99446438 -39.40959919 76.98996468 -39.51812172 67.98208523 C-39.57022107 63.79874625 -39.64081846 59.61746005 -39.75439453 55.43530273 C-39.8634091 51.39562553 -39.92291076 47.35791614 -39.94877243 43.31688118 C-39.96718909 41.77888056 -40.00315895 40.24098269 -40.05730057 38.703825 C-40.46392268 26.67602092 -40.46392268 26.67602092 -36.88079834 22.57376099 C-34.32633192 20.76690067 -31.80283211 19.38100055 -29 18 C-27.33860092 16.89811732 -25.69009564 15.77622752 -24.0625 14.625 C-21.61691548 12.96502067 -19.83250076 11.94416692 -17 11 C-16.67 10.01 -16.34 9.02 -16 8 C-15.01 7.67 -14.02 7.34 -13 7 C-12.34 6.01 -11.68 5.02 -11 4 C-8.375 3.3125 -8.375 3.3125 -6 3 C-6 3.66 -6 4.32 -6 5 C-4.02 4.34 -2.04 3.68 0 3 C0 2.01 0 1.02 0 0 Z " fill="#E48A04" transform="translate(188,253)"/>
<path d="M0 0 C2.75329021 1.79562405 4.52627461 3.05254922 6 6 C6.95814377 21.23817106 6.95814377 21.23817106 3 28 C4.32 28 5.64 28 7 28 C7 29.32 7 30.64 7 32 C5.845 31.855625 4.69 31.71125 3.5 31.5625 C-0.44413441 31.54177775 -2.01075433 32.52946435 -4.8125 35.25 C-12.64024383 42.69995697 -21.17093109 43.4056697 -31.51342773 43.20483398 C-33.34274708 43.15031716 -35.17149621 43.07717015 -37 43 C-37.33 41.68 -37.66 40.36 -38 39 C-36.19015625 38.94392578 -36.19015625 38.94392578 -34.34375 38.88671875 C-32.72913822 38.82100781 -31.11455622 38.75456229 -29.5 38.6875 C-28.31277344 38.65366211 -28.31277344 38.65366211 -27.1015625 38.61914062 C-19.04902035 38.25611618 -12.45827036 36.04060125 -6 31 C-5.505 29.515 -5.505 29.515 -5 28 C-5.99 28 -6.98 28 -8 28 C-9.3515625 26.57421875 -9.3515625 26.57421875 -10.625 24.6875 C-11.05039063 24.07261719 -11.47578125 23.45773437 -11.9140625 22.82421875 C-14.92375195 17.76837352 -14.67450208 11.7593267 -13.3125 6.1875 C-9.99729514 0.66215857 -6.33130735 -0.90447248 0 0 Z " fill="#EDB292" transform="translate(228,374)"/>
<path d="M0 0 C0.33 0 0.66 0 1 0 C1 38.94 1 77.88 1 118 C39.61 118 78.22 118 118 118 C118 113.05 118 108.1 118 103 C118.99 103 119.98 103 121 103 C121.11065148 108.42192274 121.09006648 113.65867426 120 119 C117.56290899 121.43709101 116.27935314 121.23647269 112.95463562 121.25210571 C112.23741837 121.24496552 111.52020111 121.23782532 110.78125 121.23046875 C110.00783768 121.2304184 109.23442535 121.23036804 108.43757629 121.23031616 C105.79157419 121.22661156 103.14592709 121.20738014 100.5 121.1875 C98.61352695 121.17986229 96.72705221 121.17263271 94.84057617 121.16577148 C87.8934996 121.13310383 80.94680393 121.06816934 74 121 C73.26966805 120.99296555 72.53933609 120.98593109 71.78687286 120.97868347 C60.14385529 120.8663438 48.50110659 120.73658596 36.85842896 120.5933876 C34.30488155 120.56240757 31.75132078 120.5328374 29.19775391 120.50350952 C25.14023663 120.45638578 21.0828221 120.403889 17.02542686 120.34724808 C15.50702747 120.32677268 13.98860459 120.30796728 12.47016335 120.29087448 C10.38276502 120.26699036 8.29554465 120.23698604 6.20825195 120.20532227 C4.43874931 120.18200584 4.43874931 120.18200584 2.63349915 120.15821838 C0 120 0 120 -1 119 C-1.39943176 116.47804033 -1.75079848 113.97036344 -2.0625 111.4375 C-2.15337891 110.72658203 -2.24425781 110.01566406 -2.33789062 109.28320312 C-2.56239503 107.52261597 -2.78168397 105.76136522 -3 104 C-2.34 104 -1.68 104 -1 104 C-1.00222061 102.82981827 -1.00444122 101.65963654 -1.00672913 100.45399475 C-1.0270354 89.40497467 -1.04200817 78.3559584 -1.05181217 67.30692387 C-1.05702199 61.62705264 -1.06408505 55.94719652 -1.07543945 50.26733398 C-1.08633597 44.78194976 -1.09229115 39.29658005 -1.09487724 33.81118584 C-1.09671932 31.72251596 -1.10031638 29.63384685 -1.10573006 27.54518318 C-1.11303032 24.61091546 -1.11398717 21.67670704 -1.11352539 18.74243164 C-1.11712067 17.88646896 -1.12071594 17.03050629 -1.12442017 16.14860535 C-1.1151799 10.69238127 -0.68583008 5.41409374 0 0 Z " fill="#FAF6F8" transform="translate(151,359)"/>
<path d="M0 0 C4.50802601 1.25805377 7.4912812 2.90407165 11 6 C9.54204391 11.34583901 6.29241073 14.69760163 2 18 C-3.57408351 21.17038951 -9.38305841 23.8168252 -15.22265625 26.45703125 C-25.3892708 31.21894232 -32.82524771 37.63827879 -39 47 C-39.33 47 -39.66 47 -40 47 C-40 45.35 -40 43.7 -40 42 C-39.360625 41.731875 -38.72125 41.46375 -38.0625 41.1875 C-35.66868314 40.11332248 -35.66868314 40.11332248 -35 37 C-34.34 36.34 -33.68 35.68 -33 35 C-32.28591666 33.01643517 -31.61382258 31.01684563 -31 29 C-30.67 29.66 -30.34 30.32 -30 31 C-28.68 31 -27.36 31 -26 31 C-26 30.01 -26 29.02 -26 28 C-25.43410156 27.81824219 -24.86820313 27.63648438 -24.28515625 27.44921875 C-23.55167969 27.19785156 -22.81820312 26.94648438 -22.0625 26.6875 C-21.33160156 26.44386719 -20.60070312 26.20023437 -19.84765625 25.94921875 C-17.64067976 25.08759559 -17.64067976 25.08759559 -17 22 C-14.31735316 20.54992063 -12.72668339 19.88215945 -9.6875 20.375 C-9.130625 20.58125 -8.57375 20.7875 -8 21 C-8 20.05125 -8 19.1025 -8 18.125 C-8 16.41666667 -8 14.70833333 -8 13 C-8.5775 13.680625 -9.155 14.36125 -9.75 15.0625 C-10.86375 16.0215625 -10.86375 16.0215625 -12 17 C-14 16.6875 -14 16.6875 -16 16 C-18.12816413 16.15688424 -18.12816413 16.15688424 -20 17 C-20.66 17.99 -21.32 18.98 -22 20 C-22.99 20 -23.98 20 -25 20 C-25.04125 20.598125 -25.0825 21.19625 -25.125 21.8125 C-26.43264042 25.08160105 -28.88004211 25.44361548 -32 27 C-35.07430756 29.10749262 -38.02213903 31.39299975 -40.96484375 33.6796875 C-42.7578125 35.015625 -42.7578125 35.015625 -46 37 C-48.20263672 36.62402344 -48.20263672 36.62402344 -50 36 C-35.57924446 25.36709625 -35.57924446 25.36709625 -29.625 21.25 C-26.42846092 19.03945805 -23.35471181 16.73093057 -20.3125 14.3125 C-17.63237452 12.18934553 -14.99614479 10.33507453 -12 8.6875 C-8.93173767 7.33039982 -8.93173767 7.33039982 -8 5 C-6.40625 3.96484375 -6.40625 3.96484375 -4.5 2.9375 C-2.0882696 1.6858579 -2.0882696 1.6858579 0 0 Z " fill="#DD8812" transform="translate(197,241)"/>
<path d="M0 0 C4.7517398 0.43197635 6.92000054 1.32769295 10 5 C9.34 5 8.68 5 8 5 C12.99989694 12.23669294 19.2734514 15.56962447 27.09765625 19.12792969 C30.28226628 20.58781509 33.42204241 22.13549315 36.5625 23.6875 C37.67753906 24.22761719 38.79257813 24.76773437 39.94140625 25.32421875 C42.94821069 26.97162501 45.40308023 28.7715321 48 31 C48.53625 31.43699219 49.0725 31.87398438 49.625 32.32421875 C53.72864141 36.39288595 55.25875244 41.02178607 56.875 46.4375 C57.19791016 47.51100708 57.19791016 47.51100708 57.52734375 48.60620117 C59.57275984 56.02676077 59.67389535 62.72106265 57 70 C56.01 70.495 56.01 70.495 55 71 C55.15597656 70.30003906 55.31195313 69.60007812 55.47265625 68.87890625 C57.64443081 57.0226259 55.15377761 48.87258203 48.65234375 38.94140625 C42.24987793 30.56033584 32.23961628 26.56362511 22.79272461 22.63378906 C17.15693287 20.22474045 12.50716725 17.18596682 8 13 C7.42894531 12.47921875 6.85789063 11.9584375 6.26953125 11.421875 C5 10 5 10 5 8 C4.34 8 3.68 8 3 8 C2.72414062 8.60070312 2.44828125 9.20140625 2.1640625 9.8203125 C-1.67690891 17.01246702 -8.63240437 19.20374998 -15.86035156 21.74072266 C-22.61005076 24.13026052 -29.86619531 26.86619531 -35 32 C-37.125 31.625 -37.125 31.625 -39 31 C-33.35416034 25.58069094 -27.10813179 22.57899797 -20 19.5625 C-7.85981401 14.39242273 -7.85981401 14.39242273 0.2734375 4.390625 C1.29460475 2.01589506 1.29460475 2.01589506 0 0 Z " fill="#ABA3A9" transform="translate(206,245)"/>
<path d="M0 0 C0.99 0 1.98 0 3 0 C3 18.48 3 36.96 3 56 C1 52 1 52 1 49 C0.34 49 -0.32 49 -1 49 C-1 48.34 -1 47.68 -1 47 C-1.99 47 -2.98 47 -4 47 C-5.2007392 45.59913761 -6.39387608 44.19020504 -7.52734375 42.734375 C-10.02395481 39.79406914 -13.01427805 37.42643686 -16 35 C-13.57162849 32.01657215 -11.26197747 29.24280839 -8.4375 26.625 C-5.81116519 23.79663944 -4.43924654 21.16884748 -2.89453125 17.671875 C-2 16 -2 16 0 15 C0 10.05 0 5.1 0 0 Z " fill="#E78D05" transform="translate(268,296)"/>
<path d="M0 0 C0.33 0.66 0.66 1.32 1 2 C0.2884375 3.6396875 0.2884375 3.6396875 -0.4375 5.3125 C-3.24227095 12.45427789 -3.28296027 20.75718929 -0.375 27.875 C2.70548368 33.82841704 7.29056078 38.32100974 12 43 C11.32453125 43.59167969 10.6490625 44.18335938 9.953125 44.79296875 C9.06109375 45.58316406 8.1690625 46.37335938 7.25 47.1875 C5.92742187 48.35345703 5.92742187 48.35345703 4.578125 49.54296875 C1.93513169 51.93373328 1.93513169 51.93373328 -0.140625 54.80078125 C-0.75421875 55.52652344 -1.3678125 56.25226563 -2 57 C-2.99 57 -3.98 57 -5 57 C-5 57.99 -5 58.98 -5 60 C-5.66 60 -6.32 60 -7 60 C-7.0246519 55.17619198 -7.04283693 50.35242033 -7.05493164 45.52856445 C-7.05997174 43.88630536 -7.06680378 42.24405077 -7.07543945 40.60180664 C-7.08751926 38.24624521 -7.09323139 35.89074291 -7.09765625 33.53515625 C-7.10281754 32.79660904 -7.10797882 32.05806183 -7.11329651 31.2971344 C-7.1134925 29.53101912 -7.06194719 27.76502854 -7 26 C-6.67 25.67 -6.34 25.34 -6 25 C-5.86615833 22.66818064 -5.76855037 20.33425062 -5.6875 18 C-5.3838188 11.74029682 -4.68580287 4.68580287 0 0 Z " fill="#E58F0A" transform="translate(156,288)"/>
<path d="M0 0 C0.33 0 0.66 0 1 0 C1.68865948 44.38559803 2.10920921 88.76665702 2.12338257 133.15795517 C2.12500404 136.50835203 2.1285663 139.85874216 2.13256836 143.20913696 C2.13838685 148.49684878 2.13867298 153.78453164 2.13431931 159.07224464 C2.13332144 161.03180742 2.13391265 162.99137171 2.13615799 164.95093346 C2.13868783 167.62942846 2.13493786 170.30783941 2.12939453 172.98632812 C2.13142128 173.7762103 2.13344803 174.56609247 2.13553619 175.37991047 C2.11431582 180.77136835 2.11431582 180.77136835 1 183 C0.34 183 -0.32 183 -1 183 C-1.03086232 167.12500893 -1.05106891 151.25001705 -1.0625 135.375 C-1.06335602 134.19465809 -1.06421204 133.01431618 -1.06509399 131.79820633 C-1.08629616 98.67458978 -0.97024487 65.55799008 -0.5 32.4375 C-0.48804218 31.59467216 -0.47608437 30.75184433 -0.46376419 29.88347626 C-0.32136653 19.92211447 -0.16772509 9.96096919 0 0 Z " fill="#C79A6F" transform="translate(272,278)"/>
<path d="M0 0 C7.79330711 1.55866142 15.15278868 5.95131266 22.25 9.375 C29.79239066 13.01133139 37.3627661 16.56679956 45 20 C45 20.66 45 21.32 45 22 C45.7425 22.12375 46.485 22.2475 47.25 22.375 C49.80141485 22.95486701 51.7267573 23.73708739 54 25 C54 25.33 54 25.66 54 26 C50.7 25.67 47.4 25.34 44 25 C44 24.34 44 23.68 44 23 C42.35 23 40.7 23 39 23 C39 23.66 39 24.32 39 25 C39.66 25 40.32 25 41 25 C41.495 26.98 41.495 26.98 42 29 C41.34 28.67 40.68 28.34 40 28 C40 27.34 40 26.68 40 26 C39.4534375 25.73832031 38.906875 25.47664063 38.34375 25.20703125 C35.64890474 23.81918594 33.09215495 22.25881973 30.5 20.6875 C26.33787694 18.23083225 22.24986068 16.19632879 17.75 14.4375 C10.83473644 11.6858768 4.87634452 7.68906861 0 2 C0 1.34 0 0.68 0 0 Z " fill="#D48A27" transform="translate(214,250)"/>
<path d="M0 0 C0.33 1.65 0.66 3.3 1 5 C-0.30324219 5.77923828 -0.30324219 5.77923828 -1.6328125 6.57421875 C-10.78617314 12.08851512 -17.48709353 16.68374466 -23.2890625 25.890625 C-25 28 -25 28 -27.0859375 28.921875 C-27.71757812 28.94765625 -28.34921875 28.9734375 -29 29 C-29.66 28.34 -30.32 27.68 -31 27 C-31 21.68114769 -27.33878949 17.80331673 -24 14 C-17.66088409 7.66088409 -9.3144335 -0.24511667 0 0 Z " fill="#F0B08A" transform="translate(203,279)"/>
<path d="M0 0 C0.359375 2.27734375 0.359375 2.27734375 0 5 C-2.484375 6.87890625 -2.484375 6.87890625 -5.75 8.5625 C-9.83533246 10.69891178 -12.79685992 12.70307429 -16 16 C-16.66 16 -17.32 16 -18 16 C-18.27199219 16.57234375 -18.54398438 17.1446875 -18.82421875 17.734375 C-20.01948542 20.03754666 -21.32204623 22.12639832 -22.8125 24.25 C-23.29332031 24.95640625 -23.77414063 25.6628125 -24.26953125 26.390625 C-26 28 -26 28 -28.69921875 28.234375 C-29.83810547 28.11835938 -29.83810547 28.11835938 -31 28 C-31 20.56763343 -26.96892201 16.22115155 -22 11 C-7.12615927 -2.56221457 -7.12615927 -2.56221457 0 0 Z " fill="#F0B08C" transform="translate(195,271)"/>
<path d="M0 0 C0.33 0 0.66 0 1 0 C1 39.27 1 78.54 1 119 C0.34 119 -0.32 119 -1 119 C-1.66 114.05 -2.32 109.1 -3 104 C-2.34 104 -1.68 104 -1 104 C-1.00222061 102.82981827 -1.00444122 101.65963654 -1.00672913 100.45399475 C-1.0270354 89.40497467 -1.04200817 78.3559584 -1.05181217 67.30692387 C-1.05702199 61.62705264 -1.06408505 55.94719652 -1.07543945 50.26733398 C-1.08633597 44.78194976 -1.09229115 39.29658005 -1.09487724 33.81118584 C-1.09671932 31.72251596 -1.10031638 29.63384685 -1.10573006 27.54518318 C-1.11303032 24.61091546 -1.11398717 21.67670704 -1.11352539 18.74243164 C-1.11712067 17.88646896 -1.12071594 17.03050629 -1.12442017 16.14860535 C-1.1151799 10.69238127 -0.68583008 5.41409374 0 0 Z " fill="#FCF4EB" transform="translate(151,359)"/>
<path d="M0 0 C2.0814823 3.12222345 2.253264 3.83467946 2.2784729 7.38493347 C2.28963638 8.28095779 2.30079987 9.17698212 2.31230164 10.10015869 C2.31446182 11.08055115 2.31662201 12.0609436 2.31884766 13.07104492 C2.32889328 14.10536148 2.3389389 15.13967804 2.34928894 16.20533752 C2.38022499 19.63037552 2.39718514 23.05533498 2.4140625 26.48046875 C2.43276575 28.85273418 2.45233852 31.2249929 2.4727478 33.59724426 C2.52416399 39.8459783 2.56373896 46.09473393 2.60089111 52.34356689 C2.64087132 58.71803164 2.69199092 65.09240584 2.7421875 71.46679688 C2.83905911 83.97779992 2.92380604 96.48885482 3 109 C2.01 109 1.02 109 0 109 C0 73.03 0 37.06 0 0 Z " fill="#FEEBC7" transform="translate(269,353)"/>
<path d="M0 0 C2.90926056 0.5967714 3.66981396 1.14308528 5.4375 3.5 C6.46229804 10.37217511 5.75169041 16.42398424 2.4375 22.5 C-0.73283042 22.16032174 -1.56132607 21.50130809 -3.75 19.0625 C-6.94210736 14.54952064 -7.23882678 10.94818793 -6.5625 5.5 C-4.69926187 2.11856783 -3.8240101 0.74614831 0 0 Z " fill="#F3E5DD" transform="translate(224.5625,377.5)"/>
<path d="M0 0 C1.0625 1.875 1.0625 1.875 2 4 C1.67 4.66 1.34 5.32 1 6 C1.66 6.66 2.32 7.32 3 8 C2.52691406 8.27972656 2.05382812 8.55945313 1.56640625 8.84765625 C-7.58389482 14.39491479 -15.63816306 20.45724459 -21.625 29.4375 C-22.07875 29.953125 -22.5325 30.46875 -23 31 C-27 31 -27 31 -28.75 29.5 C-29.1625 29.005 -29.575 28.51 -30 28 C-29.40058594 27.74863281 -28.80117187 27.49726563 -28.18359375 27.23828125 C-25.70637847 25.83349191 -24.67039712 24.51694652 -23.0625 22.1875 C-18.0878397 15.30712406 -11.3237061 8.09444804 -3.26953125 4.92578125 C-2.52058594 4.62027344 -1.77164063 4.31476563 -1 4 C-0.11306697 1.95894361 -0.11306697 1.95894361 0 0 Z " fill="#FCEBDB" transform="translate(195,272)"/>
<path d="M0 0 C4.49171158 1.75415955 8.8992064 3.68457064 13.3125 5.625 C14.42334961 6.11226563 14.42334961 6.11226563 15.55664062 6.609375 C17.37140913 7.40553151 19.18574802 8.20266717 21 9 C21.66 8.34 22.32 7.68 23 7 C28.1746174 10.28063979 32.82206333 13.46395448 37 18 C37.64839844 18.53882813 38.29679687 19.07765625 38.96484375 19.6328125 C41.76038157 22.88443615 42.62081211 26.16645887 43.75 30.25 C43.97042969 30.97574219 44.19085938 31.70148438 44.41796875 32.44921875 C46.56670518 39.9364308 46.70717156 46.63047742 44 54 C43.01 54.495 43.01 54.495 42 55 C42.23396484 53.95005859 42.23396484 53.95005859 42.47265625 52.87890625 C44.64443081 41.0226259 42.15377761 32.87258203 35.65234375 22.94140625 C29.24149965 14.54936835 19.03073275 10.28646636 9.48291016 6.484375 C5.53567516 4.87158912 2.77611163 3.25891365 0 0 Z " fill="#A49FAD" transform="translate(219,261)"/>
<path d="M0 0 C0.66 0.33 1.32 0.66 2 1 C0.625 1.6875 -0.75 2.375 -2.125 3.0625 C-3.02734375 3.51625 -3.9296875 3.97 -4.859375 4.4375 C-7.11309558 5.55875402 -9.37113486 6.66179022 -11.640625 7.75 C-12.5685083 8.20040649 -12.5685083 8.20040649 -13.51513672 8.65991211 C-15.30715364 9.5295743 -17.10273127 10.39188763 -18.8984375 11.25390625 C-21.83063211 12.90465057 -23.69527711 14.59530055 -26 17 C-26.66 17 -27.32 17 -28 17 C-28.268125 17.56847656 -28.53625 18.13695312 -28.8125 18.72265625 C-30.46738717 21.8963379 -32.52093167 24.74883927 -34.5625 27.68359375 C-38.43505406 33.92387787 -38.81178317 39.78725988 -38 47 C-36.91429386 49.89370213 -35.5461426 52.30671933 -34 55 C-34.33 55.66 -34.66 56.32 -35 57 C-40.88765952 50.22919155 -40.54619824 43.64206989 -40 35 C-40.66 35 -41.32 35 -42 35 C-41.60915789 27.57399993 -37.1200325 21.544039 -32.5 16 C-29.67941266 13.74353013 -27.43217983 13.10088787 -24 12 C-22.48327852 11.1112741 -20.98508654 10.19063583 -19.5 9.25 C-13.36058612 5.45966064 -6.82428203 2.35731248 0 0 Z " fill="#B1A7AE" transform="translate(196,263)"/>
<path d="M0 0 C4.65774198 4.17728722 6.58414905 9.8667072 7.39453125 15.97265625 C7.68439486 24.29281551 5.73210437 30.90184344 1.125 37.8125 C-0.59300706 39.58103668 -2.26576079 41.0397854 -4.1875 42.5625 C-7.2936693 45.22953143 -7.2936693 45.22953143 -8 49 C-9.65 48.34 -11.3 47.68 -13 47 C-13 45.68 -13 44.36 -13 43 C-11.42578125 41.5078125 -11.42578125 41.5078125 -9.3125 40.125 C-5.44805767 37.42808353 -2.88483807 34.70907752 0 31 C0.86625 30.2265625 0.86625 30.2265625 1.75 29.4375 C4.51263913 26.26046501 4.32402287 21.50497918 4.30078125 17.4609375 C3.76355989 13.06548998 2.2737395 8.94431752 0.875 4.7578125 C0 2 0 2 0 0 Z " fill="#FAECD1" transform="translate(260,285)"/>
<path d="M0 0 C-3.33266577 7.4147827 -9.67677094 10.56138257 -16.875 13.640625 C-20.49543623 15.21551476 -24.02875255 16.92859439 -27.5625 18.6875 C-28.73941406 19.26886719 -29.91632813 19.85023438 -31.12890625 20.44921875 C-34.0302027 21.83946595 -34.0302027 21.83946595 -36 24 C-38.125 23.625 -38.125 23.625 -40 23 C-33.67757034 16.93124807 -26.37913506 13.69345938 -18.36035156 10.46118164 C-12.89017983 8.17169965 -8.92729376 5.54547527 -4.69360352 1.37304688 C-3 0 -3 0 0 0 Z " fill="#F7E8D2" transform="translate(207,253)"/>
<path d="M0 0 C0.495 1.485 0.495 1.485 1 3 C1.66 3.33 2.32 3.66 3 4 C2.34 4.99 1.68 5.98 1 7 C0.4225 6.814375 -0.155 6.62875 -0.75 6.4375 C-3.27696034 5.9461466 -4.61833754 6.04733502 -7 7 C-7.99 8.485 -7.99 8.485 -9 10 C-9.99 10 -10.98 10 -12 10 C-12.04125 10.598125 -12.0825 11.19625 -12.125 11.8125 C-13.43264042 15.08160105 -15.88004211 15.44361548 -19 17 C-22.07430756 19.10749262 -25.02213903 21.39299975 -27.96484375 23.6796875 C-29.7578125 25.015625 -29.7578125 25.015625 -33 27 C-35.20263672 26.62402344 -35.20263672 26.62402344 -37 26 C-29.48498532 20.45892918 -21.96671538 14.94193684 -14.28515625 9.6328125 C-11.06629116 7.33283711 -7.984613 4.87139274 -4.91015625 2.3828125 C-3 1 -3 1 0 0 Z " fill="#DD9D43" transform="translate(184,251)"/>
<path d="M0 0 C0.99 0.33 1.98 0.66 3 1 C1.56177525 4.41860752 -0.21535724 6.27907838 -3.0625 8.625 C-5.97875712 10.95485552 -5.97875712 10.95485552 -8 14 C-8.99 14 -9.98 14 -11 14 C-11.268125 14.598125 -11.53625 15.19625 -11.8125 15.8125 C-13 18 -13 18 -14.47265625 19.34765625 C-19.17426229 24.43404846 -19.46872419 33.41218 -20 40 C-20.33 40 -20.66 40 -21 40 C-21.59532417 29.33708269 -21.62227769 21.04810028 -14.64453125 12.30078125 C-13 11 -13 11 -10.58203125 10.5234375 C-7.45381832 9.88927633 -6.05221278 8.73587356 -3.6875 6.625 C-2.99011719 6.01914062 -2.29273438 5.41328125 -1.57421875 4.7890625 C0.33029547 3.02180135 0.33029547 3.02180135 0 0 Z " fill="#F8E9CF" transform="translate(171,328)"/>
<path d="M0 0 C3.52534029 0.29377836 4.74304935 0.72102501 7.1875 3.375 C10.46987808 8.12878894 11.30514335 9.83376967 10.55859375 15.4375 C9.59839862 19.84231122 7.84086198 23.89873076 6 28 C5.01 28 4.02 28 3 28 C3.875 23.25 3.875 23.25 5 21 C5.90767853 12.13482496 5.90767853 12.13482496 3.8828125 3.67578125 C2.42163828 1.87774451 2.42163828 1.87774451 0 0 Z " fill="#F2E8E2" transform="translate(228,374)"/>
<path d="M0 0 C4.46797338 1.39878802 8.63822079 3.13630772 12.875 5.125 C14.60363281 5.93324219 14.60363281 5.93324219 16.3671875 6.7578125 C17.23601562 7.16773438 18.10484375 7.57765625 19 8 C19 8.66 19 9.32 19 10 C19.7425 10.12375 20.485 10.2475 21.25 10.375 C23.80141485 10.95486701 25.7267573 11.73708739 28 13 C28 13.33 28 13.66 28 14 C24.7 13.67 21.4 13.34 18 13 C18 12.34 18 11.68 18 11 C17.31292969 10.87882812 16.62585938 10.75765625 15.91796875 10.6328125 C15.01691406 10.46523438 14.11585938 10.29765625 13.1875 10.125 C12.29417969 9.96257812 11.40085938 9.80015625 10.48046875 9.6328125 C8 9 8 9 5 7 C5 6.34 5 5.68 5 5 C4.34 5 3.68 5 3 5 C3 4.34 3 3.68 3 3 C2.34 3 1.68 3 1 3 C0.67 2.01 0.34 1.02 0 0 Z " fill="#DE9F45" transform="translate(240,262)"/>
<path d="M0 0 C0.96846689 2.61486062 1.04559628 3.8442127 0.25 6.5625 C-0.95223658 8.90686133 -1.94407782 10.37239494 -4 12 C-4.66 12 -5.32 12 -6 12 C-6 12.99 -6 13.98 -6 15 C-6.99 15.495 -6.99 15.495 -8 16 C-8.22634733 18.32288905 -8.22634733 18.32288905 -5.6875 20.5 C-3.06901892 23.0699536 -3.06901892 23.0699536 0 25 C-0.33 26.32 -0.66 27.64 -1 29 C-1.680625 28.13375 -2.36125 27.2675 -3.0625 26.375 C-6.01598702 22.8104467 -9.41660673 19.91215245 -13 17 C-10.55000408 13.99000502 -8.18847369 11.17949875 -5.375 8.5 C-2.85124999 5.84342104 -1.47370467 3.33522637 0 0 Z " fill="#DC9A2F" transform="translate(265,314)"/>
<path d="M0 0 C0.33 1.65 0.66 3.3 1 5 C0.10796875 5.54269531 -0.7840625 6.08539063 -1.703125 6.64453125 C-2.88548104 7.36708217 -4.06776913 8.0897443 -5.25 8.8125 C-6.12978516 9.34713867 -6.12978516 9.34713867 -7.02734375 9.89257812 C-10.13497361 11.79556495 -13.1323546 13.7498921 -16 16 C-16.33 15.01 -16.66 14.02 -17 13 C-16.34 13 -15.68 13 -15 13 C-15 12.34 -15 11.68 -15 11 C-13.21118264 9.99491199 -11.41885304 8.99607264 -9.625 8 C-8.62726563 7.443125 -7.62953125 6.88625 -6.6015625 6.3125 C-4 5 -4 5 -2 5 C-2 4.01 -2 3.02 -2 2 C-8.89767894 4.8084122 -8.89767894 4.8084122 -15 9 C-15.66 8.67 -16.32 8.34 -17 8 C-15.75312408 7.03760548 -14.50235031 6.08025991 -13.25 5.125 C-12.55390625 4.59132813 -11.8578125 4.05765625 -11.140625 3.5078125 C-7.28241758 0.79017004 -4.75956102 -0.26442006 0 0 Z " fill="#E8B595" transform="translate(203,279)"/>
<path d="M0 0 C5.05061763 1.3291099 8.94823696 3.74855634 13.32421875 6.484375 C16.76714744 8.43453023 20.31396045 9.71596208 24.06640625 10.9453125 C26 12 26 12 26.77734375 14.1171875 C26.85082031 14.73851562 26.92429688 15.35984375 27 16 C5.59502299 8.04716269 5.59502299 8.04716269 0 0 Z " fill="#F7E9DD" transform="translate(214,255)"/>
<path d="M0 0 C0.33 0.66 0.66 1.32 1 2 C0.2884375 3.6396875 0.2884375 3.6396875 -0.4375 5.3125 C-3.28151479 12.55420432 -3.29034061 20.85153258 -0.1875 28 C0.5109515 29.34967674 1.23750246 30.68544331 2 32 C2.5775 33.010625 3.155 34.02125 3.75 35.0625 C4.36875 36.0215625 4.36875 36.0215625 5 37 C4.34 37 3.68 37 3 37 C3 36.34 3 35.68 3 35 C2.38640625 34.92136719 1.7728125 34.84273438 1.140625 34.76171875 C-1 34 -1 34 -2.265625 32.20703125 C-5.57114852 24.1662141 -6.70170539 15.58586703 -4.12890625 7.140625 C-1.81285211 1.81285211 -1.81285211 1.81285211 0 0 Z " fill="#DA982B" transform="translate(156,288)"/>
<path d="M0 0 C-2.95183101 2.95183101 -5.95511947 3.08663988 -10 4 C-10.33 6.31 -10.66 8.62 -11 11 C-11.33 11 -11.66 11 -12 11 C-12 8.69 -12 6.38 -12 4 C-13.32 4 -14.64 4 -16 4 C-16 6.31 -16 8.62 -16 11 C-16.33 11 -16.66 11 -17 11 C-17 8.69 -17 6.38 -17 4 C-19.64 4 -22.28 4 -25 4 C-24.67 7.3 -24.34 10.6 -24 14 C-24.66 14 -25.32 14 -26 14 C-26 10.04 -26 6.08 -26 2 C-24.85402344 1.95101563 -23.70804688 1.90203125 -22.52734375 1.8515625 C-20.99737465 1.77647199 -19.46742782 1.70092694 -17.9375 1.625 C-17.18533203 1.5940625 -16.43316406 1.563125 -15.65820312 1.53125 C-11.9594176 1.3391053 -8.61508571 0.99331138 -5.06640625 -0.1015625 C-2 -1 -2 -1 0 0 Z " fill="#F7E4D5" transform="translate(217,415)"/>
<path d="M0 0 C0.33 0.66 0.66 1.32 1 2 C0.54625 2.556875 0.0925 3.11375 -0.375 3.6875 C-2.08306773 5.92980734 -2.08306773 5.92980734 -3 8.5 C-4.02445378 11.06113445 -5.3319323 12.82425952 -7 15 C-7.33 15.99 -7.66 16.98 -8 18 C-10.475 17.01 -10.475 17.01 -13 16 C-13 14.68 -13 13.36 -13 12 C-11.42578125 10.5078125 -11.42578125 10.5078125 -9.3125 9.125 C-5.4668116 6.44736261 -2.83262206 3.71781645 0 0 Z " fill="#BEB6BE" transform="translate(260,316)"/>
<path d="M0 0 C7.63871521 5.11832694 13.70121141 10.80484565 16 20 C12.71110889 18.63597569 11.37073089 17.42800735 9.6875 14.3125 C7.40730056 10.39340721 4.71788967 7.5612613 1.35546875 4.54296875 C0 3 0 3 0 0 Z " fill="#FAECD3" transform="translate(253,332)"/>
<path d="M0 0 C0.66 0.33 1.32 0.66 2 1 C-1.33598646 5.31715895 -4.31293302 8.09401847 -9 11 C-10.77179237 12.37121322 -12.53997338 13.74443878 -14.2890625 15.14453125 C-16.55167158 16.27583579 -17.63701635 15.69085426 -20 15 C-18.97519531 14.25234375 -17.95039063 13.5046875 -16.89453125 12.734375 C-15.53381138 11.73964186 -14.17313669 10.74484692 -12.8125 9.75 C-12.13896484 9.25886719 -11.46542969 8.76773437 -10.77148438 8.26171875 C-7.11358282 5.58520542 -3.51379238 2.86561709 0 0 Z " fill="#DFAD5D" transform="translate(167,262)"/>
<path d="M0 0 C0 1.65 0 3.3 0 5 C-1.65 5.66 -3.3 6.32 -5 7 C-4.01 5.35 -3.02 3.7 -2 2 C-4.86724686 2.57344937 -5.8614515 2.8614515 -8 5 C-9.72499215 5.71603448 -11.45035272 6.43123699 -13.1796875 7.13671875 C-15.78386145 8.37174545 -17.84576125 10.1068811 -20 12 C-20.66 11.67 -21.32 11.34 -22 11 C-5.97287197 -2.14754947 -5.97287197 -2.14754947 0 0 Z " fill="#EAB799" transform="translate(195,271)"/>
<path d="M0 0 C2 1.375 2 1.375 4 3 C4 3.66 4 4.32 4 5 C4.99 5 5.98 5 7 5 C6.67300016 7.9429986 6.19941672 8.83835986 3.85546875 10.73828125 C2.53482422 11.51751953 2.53482422 11.51751953 1.1875 12.3125 C0.31480469 12.84488281 -0.55789062 13.37726563 -1.45703125 13.92578125 C-4.23646682 15.09988998 -5.24935425 15.09641124 -8 14 C-2.375 10 -2.375 10 1 10 C1.6878236 7.64632287 1.6878236 7.64632287 2 5 C1.34 4.01 0.68 3.02 0 2 C0 1.34 0 0.68 0 0 Z " fill="#F6E0CF" transform="translate(216,397)"/>
<path d="M0 0 C0.33 0.99 0.66 1.98 1 3 C0.32517578 4.10408203 0.32517578 4.10408203 -0.36328125 5.23046875 C-2.36862707 8.62376275 -2.71391973 11.41457008 -3.1875 15.3125 C-3.34605469 16.56675781 -3.50460938 17.82101562 -3.66796875 19.11328125 C-3.77753906 20.06589844 -3.88710937 21.01851563 -4 22 C-3.34 22.33 -2.68 22.66 -2 23 C-2 23.99 -2 24.98 -2 26 C-2.99 26 -3.98 26 -5 26 C-7.13479705 21.7304059 -6.58953524 16.62068163 -6 12 C-4.36230086 7.7696751 -2.31954549 3.89352279 0 0 Z " fill="#F3EDF2" transform="translate(163,286)"/>
<path d="M0 0 C4.74246236 0.94849247 9.55378451 2.55378451 13 6 C11.35 6 9.7 6 8 6 C9.93254772 8.0245738 11.63158688 9.42105792 14 11 C13.01 11.495 13.01 11.495 12 12 C2.87822878 5.35793358 2.87822878 5.35793358 0 2 C0 1.34 0 0.68 0 0 Z " fill="#D69E4A" transform="translate(214,250)"/>
<path d="M0 0 C1.98 0.66 3.96 1.32 6 2 C6 2.33 6 2.66 6 3 C3.36 3 0.72 3 -2 3 C-2.1546875 4.175625 -2.1546875 4.175625 -2.3125 5.375 C-3 8 -3 8 -6 10 C-9.1875 10.125 -9.1875 10.125 -12 10 C-8.85073447 5.46505763 -5.77807401 3.52426551 -1 1 C-0.67 0.67 -0.34 0.34 0 0 Z " fill="#DD9A44" transform="translate(197,241)"/>
<path d="M0 0 C1.65 0.33 3.3 0.66 5 1 C5 5 5 5 3.03125 7.140625 C1.77828125 8.18476563 1.77828125 8.18476563 0.5 9.25 C-0.3353125 9.95640625 -1.170625 10.6628125 -2.03125 11.390625 C-2.6809375 11.92171875 -3.330625 12.4528125 -4 13 C-4.99 12.34 -5.98 11.68 -7 11 C-4.36 8.69 -1.72 6.38 1 4 C0.67 2.68 0.34 1.36 0 0 Z " fill="#F5EAD8" transform="translate(166,327)"/>
<path d="M0 0 C2.375 0.3125 2.375 0.3125 5 1 C7.18475322 4.27712983 7.2479325 5.23867384 7.23046875 9.03515625 C7.22853516 10.00904297 7.22660156 10.98292969 7.22460938 11.98632812 C7.21236328 13.00146484 7.20011719 14.01660156 7.1875 15.0625 C7.18685547 16.08150391 7.18621094 17.10050781 7.18554688 18.15039062 C7.14040493 25.71919014 7.14040493 25.71919014 6 28 C5.01 28 4.02 28 3 28 C3.875 23.25 3.875 23.25 5 21 C5.90767853 12.13482496 5.90767853 12.13482496 3.8828125 3.67578125 C2.42163828 1.87774451 2.42163828 1.87774451 0 0 Z " fill="#F6DBCC" transform="translate(228,374)"/>
<path d="M0 0 C0.99 0.99 1.98 1.98 3 3 C2 4 2 4 -0.5625 4.0625 C-1.7690625 4.0315625 -1.7690625 4.0315625 -3 4 C-3 4.99 -3 5.98 -3 7 C-3.66 7 -4.32 7 -5 7 C-4.67 8.98 -4.34 10.96 -4 13 C-6.31 13.33 -8.62 13.66 -11 14 C-9.18352668 8.00563806 -5.14218863 3.42812575 0 0 Z " fill="#FBE7D5" transform="translate(189,293)"/>
<path d="M0 0 C0 0.99 0 1.98 0 3 C-1.74404788 4.01034498 -3.49549561 5.00792422 -5.25 6 C-6.22453125 6.556875 -7.1990625 7.11375 -8.203125 7.6875 C-11 9 -11 9 -15 9 C-15 8.34 -15 7.68 -15 7 C-5.51612903 0 -5.51612903 0 0 0 Z " fill="#F6AC85" transform="translate(201,281)"/>
<path d="M0 0 C0.33 0.66 0.66 1.32 1 2 C-0.68474722 5.36949443 -1.8191658 6.87944386 -5 9 C-6.21284876 12.05429073 -6.21284876 12.05429073 -7 15 C-6.01 15 -5.02 15 -4 15 C-3.67 13.68 -3.34 12.36 -3 11 C-2.34 11 -1.68 11 -1 11 C-1.75 13.4375 -1.75 13.4375 -3 16 C-5 16.9375 -5 16.9375 -7 17 C-7.66 16.34 -8.32 15.68 -9 15 C-9 9.03965738 -4.00463196 4.00463196 0 0 Z " fill="#EAB798" transform="translate(181,291)"/>
<path d="M0 0 C0 3.57575896 -1.08840607 5.05295935 -3 8 C-1.68 7.67 -0.36 7.34 1 7 C0.01 8.98 -0.98 10.96 -2 13 C-4.66420516 13 -6.52260646 12.90837763 -9 12 C-9.33 11.01 -9.66 10.02 -10 9 C-9.2575 8.79375 -8.515 8.5875 -7.75 8.375 C-4.19919264 6.59959632 -3.00364113 4.36325475 -1 1 C-0.67 0.67 -0.34 0.34 0 0 Z " fill="#FCE9D7" transform="translate(175,290)"/>
<path d="M0 0 C0.99 0.33 1.98 0.66 3 1 C1.56177525 4.41860752 -0.21535724 6.27907838 -3.0625 8.625 C-5.97875712 10.95485552 -5.97875712 10.95485552 -8 14 C-8.99 14 -9.98 14 -11 14 C-11.66 15.32 -12.32 16.64 -13 18 C-14.33332095 15.3333581 -13.67102033 13.83319697 -13 11 C-12.26394531 10.90460938 -11.52789062 10.80921875 -10.76953125 10.7109375 C-7.61111058 9.90017225 -6.10439018 8.78244999 -3.6875 6.625 C-2.99011719 6.01914062 -2.29273438 5.41328125 -1.57421875 4.7890625 C0.33029547 3.02180135 0.33029547 3.02180135 0 0 Z " fill="#9C95AC" transform="translate(171,328)"/>
<path d="M0 0 C1.01126953 0.23009766 1.01126953 0.23009766 2.04296875 0.46484375 C5.46877952 1.08483857 8.83893447 1.3352574 12.3125 1.5625 C13.56675781 1.64628906 14.82101563 1.73007812 16.11328125 1.81640625 C17.54220703 1.90728516 17.54220703 1.90728516 19 2 C19 2.33 19 2.66 19 3 C13.06 3 7.12 3 1 3 C1.33 4.32 1.66 5.64 2 7 C1.01 7.33 0.02 7.66 -1 8 C-2.2077558 4.37673261 -1.54311128 3.35853631 0 0 Z " fill="#F8E0D2" transform="translate(189,410)"/>
<path d="M0 0 C3.3125 0.25 3.3125 0.25 7 1 C7.99 2.32 8.98 3.64 10 5 C3.565 5.495 3.565 5.495 -3 6 C-1.68 4.68 -0.36 3.36 1 2 C0.67 1.34 0.34 0.68 0 0 Z " fill="#F2E6DD" transform="translate(222,369)"/>
<path d="M0 0 C1.31611677 0.95336021 2.62778961 1.91285774 3.9375 2.875 C4.66839844 3.40867187 5.39929688 3.94234375 6.15234375 4.4921875 C8 6 8 6 9 8 C2.6 8.49230769 2.6 8.49230769 -0.4375 6 C-0.953125 5.34 -1.46875 4.68 -2 4 C-1.34 2.68 -0.68 1.36 0 0 Z " fill="#C9BEB8" transform="translate(162,320)"/>
<path d="M0 0 C3.3125 0.25 3.3125 0.25 7 1 C8.6875 3 8.6875 3 10 5 C12.09415804 5.79623822 12.09415804 5.79623822 14 6 C14 6.66 14 7.32 14 8 C8.36663644 7.61807705 5.09760182 7.22177157 1 3 C0.67 2.01 0.34 1.02 0 0 Z " fill="#DA8411" transform="translate(221,255)"/>
<path d="M0 0 C2.475 0.495 2.475 0.495 5 1 C5 1.66 5 2.32 5 3 C6.11375 3.185625 6.11375 3.185625 7.25 3.375 C9.80141485 3.95486701 11.7267573 4.73708739 14 6 C14 6.33 14 6.66 14 7 C10.7 6.67 7.4 6.34 4 6 C4 5.34 4 4.68 4 4 C3.01 4 2.02 4 1 4 C0.67 2.68 0.34 1.36 0 0 Z " fill="#DFAB61" transform="translate(254,269)"/>
<path d="M0 0 C2.97 0.495 2.97 0.495 6 1 C6 1.66 6 2.32 6 3 C7.65 3 9.3 3 11 3 C11.33 3.66 11.66 4.32 12 5 C9.09399739 6.25664978 7.20395416 7 4 7 C3.67 5.68 3.34 4.36 3 3 C2.34 3 1.68 3 1 3 C0.67 2.01 0.34 1.02 0 0 Z " fill="#E68D06" transform="translate(252,272)"/>
<path d="M0 0 C2.58548628 2.58548628 2.97641847 4.29538385 3.09765625 7.91796875 C3.08605469 8.99691406 3.07445312 10.07585937 3.0625 11.1875 C3.05347656 12.27417969 3.04445313 13.36085938 3.03515625 14.48046875 C3.02355469 15.31191406 3.01195312 16.14335937 3 17 C2.01 17.33 1.02 17.66 0 18 C0 12.06 0 6.12 0 0 Z M3 0 C3.33 0.66 3.66 1.32 4 2 C3.34 1.67 2.68 1.34 2 1 C2.33 0.67 2.66 0.34 3 0 Z " fill="#DF982D" transform="translate(266,294)"/>
<path d="M0 0 C2.66389689 2.66389689 2.98142077 4.40323509 3.09765625 8.13671875 C3.08605469 9.30847656 3.07445312 10.48023438 3.0625 11.6875 C3.05347656 12.86699219 3.04445313 14.04648437 3.03515625 15.26171875 C3.02355469 16.16535156 3.01195312 17.06898438 3 18 C2.34 18 1.68 18 1 18 C1.020625 17.2575 1.04125 16.515 1.0625 15.75 C1.11625612 13.0951523 1.11625612 13.0951523 0.4375 11 C-0.12252081 8.43990488 0.37081622 6.51673514 1 4 C0.34 3.67 -0.32 3.34 -1 3 C-0.67 2.01 -0.34 1.02 0 0 Z " fill="#F4F0F5" transform="translate(260,293)"/>
<path d="M0 0 C2.375 0.5 2.375 0.5 4.375 3.5 C3.446875 3.4175 2.51875 3.335 1.5625 3.25 C-1.61900645 3.18324615 -1.61900645 3.18324615 -3.4375 5.0625 C-4.95528768 8.17795892 -5.29514996 11.06955958 -5.625 14.5 C-5.955 14.5 -6.285 14.5 -6.625 14.5 C-6.98522892 9.90708123 -7.20369016 6.55021547 -4.9375 2.4375 C-2.625 0.5 -2.625 0.5 0 0 Z " fill="#F8E1D2" transform="translate(224.625,377.5)"/>
<path d="M0 0 C0.33 0.66 0.66 1.32 1 2 C-1.90150062 2.61546983 -4.73765711 3.08751864 -7.6875 3.4375 C-11.06878101 3.68294968 -11.06878101 3.68294968 -13 6 C-13.66 5.01 -14.32 4.02 -15 3 C-9.63999211 0.74315457 -5.8022175 -0.36263859 0 0 Z " fill="#E1992F" transform="translate(271,276)"/>
<path d="M0 0 C0.556875 0.474375 1.11375 0.94875 1.6875 1.4375 C4.18346074 3.12395996 6.0446237 3.58953107 9 4 C9 5.32 9 6.64 9 8 C9.66 8 10.32 8 11 8 C11.33 9.32 11.66 10.64 12 12 C11.34 11.67 10.68 11.34 10 11 C10 10.34 10 9.68 10 9 C9.42765625 8.72414063 8.8553125 8.44828125 8.265625 8.1640625 C6.01035733 7.00532152 3.89143622 5.73124294 1.75 4.375 C1.04359375 3.92898438 0.3371875 3.48296875 -0.390625 3.0234375 C-0.92171875 2.68570312 -1.4528125 2.34796875 -2 2 C-1.34 1.34 -0.68 0.68 0 0 Z " fill="#DD982E" transform="translate(244,267)"/>
<path d="M0 0 C0.66 0 1.32 0 2 0 C1.67 1.32 1.34 2.64 1 4 C-0.01320312 4.18175781 -0.01320312 4.18175781 -1.046875 4.3671875 C-2.38492188 4.61855469 -2.38492188 4.61855469 -3.75 4.875 C-4.63171875 5.03742188 -5.5134375 5.19984375 -6.421875 5.3671875 C-8.86947744 5.96796264 -10.80599857 6.77997117 -13 8 C-10.18134715 3.68393782 -10.18134715 3.68393782 -8 2 C-5.05171839 1.75476401 -2.92769265 2.30529327 0 3 C0 2.01 0 1.02 0 0 Z " fill="#F9DECD" transform="translate(235,403)"/>
<path d="M0 0 C2.875 0.3125 2.875 0.3125 6 1 C6.66 1.99 7.32 2.98 8 4 C7.67 4.66 7.34 5.32 7 6 C4.4375 6.625 4.4375 6.625 2 7 C2.33 5.02 2.66 3.04 3 1 C2.01 0.67 1.02 0.34 0 0 Z " fill="#FCF6EA" transform="translate(206,245)"/>
<path d="M0 0 C0.66 0.33 1.32 0.66 2 1 C-2.18461538 6.78461538 -2.18461538 6.78461538 -6.3125 7.875 C-7.6428125 7.936875 -7.6428125 7.936875 -9 8 C-6.17493137 5.0702992 -3.21203935 2.49825283 0 0 Z " fill="#E4B572" transform="translate(167,262)"/>
<path d="M0 0 C0.66 0.33 1.32 0.66 2 1 C-0.2417019 3.2417019 -2.38662752 5.19552853 -5 7 C-6.32 6.67 -7.64 6.34 -9 6 C-6.03 4.02 -3.06 2.04 0 0 Z " fill="#FCE6D2" transform="translate(199,286)"/>
<path d="M0 0 C1.32 0 2.64 0 4 0 C4.12117188 0.63808594 4.24234375 1.27617187 4.3671875 1.93359375 C4.53476562 2.75988281 4.70234375 3.58617187 4.875 4.4375 C5.03742188 5.26121094 5.19984375 6.08492188 5.3671875 6.93359375 C5.57601563 7.61550781 5.78484375 8.29742187 6 9 C6.66 9.33 7.32 9.66 8 10 C7.34 10.66 6.68 11.32 6 12 C4.02 8.04 2.04 4.08 0 0 Z " fill="#DB982B" transform="translate(259,282)"/>
<path d="M0 0 C1.32 0.33 2.64 0.66 4 1 C0.375 6.75 0.375 6.75 -3 9 C-2.01 6.03 -1.02 3.06 0 0 Z " fill="#C0BBC3" transform="translate(166,277)"/>
<path d="M0 0 C0.33 0 0.66 0 1 0 C1.125 7.75 1.125 7.75 0 10 C-0.99 10 -1.98 10 -3 10 C-2.39009109 6.44219804 -1.4216319 3.3171411 0 0 Z " fill="#F9E2D4" transform="translate(234,392)"/>
<path d="M0 0 C0.66 1.32 1.32 2.64 2 4 C1.01 4.66 0.02 5.32 -1 6 C-0.67 4.02 -0.34 2.04 0 0 Z M-2 6 C-0.35 6.33 1.3 6.66 3 7 C1.1875 8.5625 1.1875 8.5625 -1 10 C-1.99 9.67 -2.98 9.34 -4 9 C-3.34 8.01 -2.68 7.02 -2 6 Z " fill="#FDEDD9" transform="translate(195,272)"/>
<path d="M0 0 C5 2 5 2 10 4 C9.01 4.66 8.02 5.32 7 6 C3.84532227 5.23056641 2.41411896 4.67047831 0.6875 1.875 C0.460625 1.25625 0.23375 0.6375 0 0 Z " fill="#E4B26B" transform="translate(228,256)"/>
<path d="M0 0 C0.66 0.66 1.32 1.32 2 2 C1.88679697 5.28288776 0.71715137 6.30354487 -1.5625 8.75 C-2.7690625 9.86375 -2.7690625 9.86375 -4 11 C-4 10.01 -4 9.02 -4 8 C-3.525625 7.54625 -3.05125 7.0925 -2.5625 6.625 C-0.55416651 4.53633317 -0.38130476 2.8216552 0 0 Z " fill="#F6EDE2" transform="translate(256,443)"/>
<path d="M0 0 C1.65 0 3.3 0 5 0 C5.33 1.32 5.66 2.64 6 4 C3.69 3.67 1.38 3.34 -1 3 C-0.67 2.01 -0.34 1.02 0 0 Z " fill="#EEAF89" transform="translate(223,374)"/>
<path d="M0 0 C0.33 0 0.66 0 1 0 C1 4.62 1 9.24 1 14 C0.67 13.01 0.34 12.02 0 11 C-0.99 11 -1.98 11 -3 11 C-3 10.34 -3 9.68 -3 9 C-2.34 8.67 -1.68 8.34 -1 8 C-0.53476937 6.10466658 -0.53476937 6.10466658 -0.375 3.9375 C-0.25125 2.638125 -0.1275 1.33875 0 0 Z " fill="#F3EAE0" transform="translate(171,368)"/>
<path d="M0 0 C0 0.66 0 1.32 0 2 C-0.99 2.495 -0.99 2.495 -2 3 C-2 3.99 -2 4.98 -2 6 C-3.32 5.67 -4.64 5.34 -6 5 C-6 4.01 -6 3.02 -6 2 C-2.25 0 -2.25 0 0 0 Z " fill="#DE9521" transform="translate(259,327)"/>
<path d="M0 0 C1.125 3.75 1.125 3.75 0 6 C-1.32 6 -2.64 6 -4 6 C-4 4.68 -4 3.36 -4 2 C-2.68 1.34 -1.36 0.68 0 0 Z " fill="#F5AB87" transform="translate(169,291)"/>
<path d="M0 0 C-1 2 -1 2 -2.84765625 2.6328125 C-3.57855469 2.79523438 -4.30945313 2.95765625 -5.0625 3.125 C-6.16271484 3.37636719 -6.16271484 3.37636719 -7.28515625 3.6328125 C-7.85105469 3.75398438 -8.41695312 3.87515625 -9 4 C-9 3.01 -9 2.02 -9 1 C-5.8035914 -0.06546953 -3.34252724 -0.07427838 0 0 Z " fill="#F5EBDF" transform="translate(191,265)"/>
<path d="M0 0 C3.3125 0.75 3.3125 0.75 6 2 C6 2.33 6 2.66 6 3 C-1.625 4 -1.625 4 -5 4 C-2.875 1.875 -2.875 1.875 0 0 Z " fill="#E7C391" transform="translate(197,241)"/>
<path d="M0 0 C0.33 0.99 0.66 1.98 1 3 C-2.75 6 -2.75 6 -5 6 C-4.1875 3.5625 -4.1875 3.5625 -3 1 C-2.01 0.67 -1.02 0.34 0 0 Z " fill="#FEF4E7" transform="translate(177,292)"/>
<path d="M0 0 C2.97 0.495 2.97 0.495 6 1 C6.33 2.65 6.66 4.3 7 6 C4.03 5.505 4.03 5.505 1 5 C0.67 3.35 0.34 1.7 0 0 Z " fill="#F4EAE2" transform="translate(207,258)"/>
<path d="M0 0 C0.66 0 1.32 0 2 0 C2 1.65 2 3.3 2 5 C2.66 5 3.32 5 4 5 C4 5.66 4 6.32 4 7 C2.125 7.625 2.125 7.625 0 8 C-0.66 7.34 -1.32 6.68 -2 6 C-1.67 5.195625 -1.34 4.39125 -1 3.5625 C0.06059041 1.30318875 0.06059041 1.30318875 0 0 Z " fill="#D9C9B5" transform="translate(207,246)"/>
<path d="M0 0 C0.33 0 0.66 0 1 0 C1 4.29 1 8.58 1 13 C0.67 11.68 0.34 10.36 0 9 C-0.66 9 -1.32 9 -2 9 C-1.34 6.03 -0.68 3.06 0 0 Z " fill="#F2EADF" transform="translate(171,418)"/>
<path d="M0 0 C1.485 0.99 1.485 0.99 3 2 C3.29296875 4.3828125 3.29296875 4.3828125 3.1875 7.125 C3.16042969 8.03507812 3.13335937 8.94515625 3.10546875 9.8828125 C3.07066406 10.58148438 3.03585937 11.28015625 3 12 C2.67 12 2.34 12 2 12 C1.34 8.04 0.68 4.08 0 0 Z " fill="#F6ECF0" transform="translate(266,350)"/>
<path d="M0 0 C1.32 0.66 2.64 1.32 4 2 C2.75 3.5625 2.75 3.5625 1 5 C-1.1875 4.6875 -1.1875 4.6875 -3 4 C-2.34 3.67 -1.68 3.34 -1 3 C-0.67 2.01 -0.34 1.02 0 0 Z " fill="#FCF6EE" transform="translate(171,321)"/>
<path d="M0 0 C1.32 0 2.64 0 4 0 C4.66 2.97 5.32 5.94 6 9 C3.59927045 6.11912454 1.52708963 3.43595166 0 0 Z " fill="#F1E9E2" transform="translate(256,283)"/>
<path d="M0 0 C2.97 1.65 5.94 3.3 9 5 C8.01 5.495 8.01 5.495 7 6 C4.64018187 5.06421005 2.30368736 4.06652192 0 3 C0 2.01 0 1.02 0 0 Z " fill="#FBEACB" transform="translate(241,268)"/>
<path d="M0 0 C2.64 0 5.28 0 8 0 C8.33 1.32 8.66 2.64 9 4 C6.03 3.01 3.06 2.02 0 1 C0 0.67 0 0.34 0 0 Z " fill="#D79434" transform="translate(228,262)"/>
<path d="M0 0 C5.53846154 -0.36923077 5.53846154 -0.36923077 7.875 1.5 C8.24625 1.995 8.6175 2.49 9 3 C8.67 3.99 8.34 4.98 8 6 C7.67 5.01 7.34 4.02 7 3 C6.01 3 5.02 3 4 3 C4 2.34 4 1.68 4 1 C2.68 0.67 1.36 0.34 0 0 Z " fill="#D49537" transform="translate(199,244)"/>
<path d="M0 0 C1.65 0.99 3.3 1.98 5 3 C5.33 2.34 5.66 1.68 6 1 C5.67 2.32 5.34 3.64 5 5 C3.35 5 1.7 5 0 5 C0 3.35 0 1.7 0 0 Z " fill="#E6B596" transform="translate(164,294)"/>
<path d="M0 0 C2.97 0.495 2.97 0.495 6 1 C4.35 2.65 2.7 4.3 1 6 C0 4 0 4 0 0 Z " fill="#F8EFD5" transform="translate(174,275)"/>
<path d="M0 0 C0.99 0 1.98 0 3 0 C2.3125 1.9375 2.3125 1.9375 1 4 C-1.625 4.75 -1.625 4.75 -4 5 C-2.1875 2.5 -2.1875 2.5 0 0 Z " fill="#F8E4C6" transform="translate(204,253)"/>
</svg>
